<?xml version="1.0" encoding="UTF-8"?>
<svg xmlns="http://www.w3.org/2000/svg" width="64" height="64" viewBox="40 24 100 172" preserveAspectRatio="xMidYMid meet" role="img" aria-label="Primeiro Passo favicon">
  <path fill="#013014" d="M129.19,125.43c-1.59,1.96-9.52-.49-10.1-1.91l.75-8.76c-.38-7.07.28-14.27,0-21.35l-34.03,2.85-.65,5.16,14.27,2.67-.15,1.91c-13.02,13.34-31.26,23.38-37.23,41.97l-1.75.06c-6.27-22.57-14.27-44.66,6.81-62.42,37.17-31.31,101.8-5.03,62.06,39.83Z"/>
  <path fill="#022A68" d="M78.19,192.76c-3.47-6.54-6.24-13.33-8.3-20.37-.98-5.05.12-19.82,6.99-19.04-1.67-7.47,3-7.61,9.26-6.45l10.77,2.43c8.69-2.65,13.25-.77,13.69,5.65h.75c2.87,7.27,9.07,13.91,10.1,21.86,3.56,27.39-27.4,35.34-43.25,15.91Z"/>
  <path fill="#022A68" d="M78.19,192.76c-26.13-32.01,5.64-59.52,29.4-79.6,3.03-.23,3.81,8.82,5.68,10.41,1.51,1.29,4.57.8,4.88,1.04,3.22-1.66,6.97,4.17,4.25,6.57-6.3,7.06-12.55,13.62-11.05,23.81l-.84,2.46c-3.12-12.44-7.2-5.79-14.05-6.51-6.02-.63-11.53-3.95-18.27-2.51l.85,10.66c-3.1.47-.93-6.36-5.14-3.73-.56.35-3.41,11.58-3.42,12.34-.12,7.61,7.23,17.36,7.72,25.06Z"/>
  <path fill="#022A68" d="M132.37,32.04c19.33-2.75,17.84,26.19,4.22,32.8-23.2,11.25-25.64-29.75-4.22-32.8Z"/>
  <path fill="#013014" d="M98.39,38.58c14.1-2.1,16,21.78,5.55,24.27-16.19,3.85-18.26-22.38-5.55-24.27Z"/>
  <path fill="#013014" d="M83.89,67.71c-8.57,8.23-23.05-10.01-12.94-17,9.08-6.28,19.28,10.91,12.94,17Z"/>
  <path fill="#013014" d="M56.7,64.85c10.48-2.74,14.63,12.51,5.33,14.25-8.69,1.63-13.53-12.11-5.33-14.25Z"/>
  <path fill="#013014" d="M53.31,91.54c-4.68,3.52-13.69-2.22-7.46-7.61,6.61-5.71,11.86,4.31,7.46,7.61Z"/>
  <path fill="#013014" d="M119.84,114.76c.14,2.68-.27,5.41.13,8.08l9.22,2.59c-2.21,2.49-5.81,4.63-6.8,5.75-.57-3.02-1.76-4.7-4.25-6.57l1.7-9.85Z"/>
</svg>
