<?xml version="1.0" encoding="UTF-8"?>
<svg version="1.1" xmlns="http://www.w3.org/2000/svg" width="3210" height="1391" viewBox="0 0 3210 1391" preserveAspectRatio="xMidYMid meet">
<path d="M0 0 C0.75039551 0.20737793 1.50079102 0.41475586 2.27392578 0.62841797 C45.60991731 12.70137687 88.65242995 37.39596072 112 77 C128.73474348 106.89666184 133.15578844 141.80826674 124.16796875 175.08007812 C115.6091279 204.64858386 101.37559321 231.42841163 83 256 C82.59958496 256.53931152 82.19916992 257.07862305 81.78662109 257.63427734 C75.63606501 265.89033994 69.06864513 273.74194478 62.29980469 281.49609375 C61.20487906 282.76294985 60.13462217 284.05106619 59.0703125 285.34375 C53.00478336 292.65721098 45.44918356 298.16307733 37.90234375 303.84765625 C36.98469238 304.54052734 36.06704102 305.23339844 35.12158203 305.94726562 C33.29026022 307.32624808 31.45420034 308.69896746 29.61279297 310.06445312 C21.82537664 315.91189727 15.2292071 322.44786956 8.8984375 329.82421875 C6.73254995 332.30652198 4.49123043 334.71055145 2.25 337.125 C-3.53069975 343.47501109 -8.8239941 350.1516023 -14 357 C-14.43344727 357.57121582 -14.86689453 358.14243164 -15.31347656 358.73095703 C-32.31186267 381.30311265 -43.0911446 405.32367048 -43.25 433.9375 C-43.2809375 435.32485352 -43.2809375 435.32485352 -43.3125 436.74023438 C-43.37294345 447.52183452 -39.87847168 455.97212615 -34.875 465.375 C-34.36291992 466.34816162 -33.85083984 467.32132324 -33.32324219 468.32397461 C-28.27911528 477.75387931 -22.76205772 486.8868459 -17.14013672 495.97998047 C-10.20101054 507.20779226 -3.45649892 518.49181304 2.1875 530.4375 C2.60966797 531.32856445 3.03183594 532.21962891 3.46679688 533.13769531 C8.21581013 543.35137684 12.0505924 553.87134301 14 565 C14.18433594 565.88171875 14.36867188 566.7634375 14.55859375 567.671875 C18.1450862 587.5583573 17.0436372 608.50097535 12 628 C11.81808105 628.72074707 11.63616211 629.44149414 11.44873047 630.18408203 C6.15348133 650.54642078 -4.48916649 667.94771748 -19 683 C-19.59554688 683.65871094 -20.19109375 684.31742188 -20.8046875 684.99609375 C-34.23324111 699.46018259 -53.50793649 707.47248102 -72 713 C-73.62421875 713.51433594 -73.62421875 713.51433594 -75.28125 714.0390625 C-85.09410093 716.57473617 -94.64331569 717.32317095 -104.75317383 717.26074219 C-106.79994695 717.25006548 -108.84583215 717.2606806 -110.89257812 717.2734375 C-123.54986391 717.28871857 -135.93818446 716.04337383 -148.125 712.4375 C-149.00333496 712.1792041 -149.88166992 711.9209082 -150.78662109 711.65478516 C-172.75171527 704.94529099 -192.82498184 694.35182393 -210 679 C-210.98226562 678.13761719 -211.96453125 677.27523437 -212.9765625 676.38671875 C-236.51006786 655.48215464 -254.87895907 628.51731801 -268 600 C-268.52980469 598.86820313 -269.05960937 597.73640625 -269.60546875 596.5703125 C-275.86243764 582.64091646 -280.22886321 568.00469188 -283 553 C-283.16773926 552.27651367 -283.33547852 551.55302734 -283.50830078 550.80761719 C-285.47120453 541.67546625 -285.3968869 532.54662539 -285.375 523.25 C-285.37445618 522.38417297 -285.37391235 521.51834595 -285.37335205 520.62628174 C-285.33322533 506.72349779 -284.38901474 493.53235954 -281 480 C-280.80164551 479.15518066 -280.60329102 478.31036133 -280.39892578 477.43994141 C-268.0347638 425.53406808 -234.51630716 379.45388239 -198.703125 340.94921875 C-196.70837007 338.79779604 -194.78708993 336.5943578 -192.87573242 334.36865234 C-188.86139024 329.77560585 -184.60291033 325.45874669 -180.28515625 321.15234375 C-179.47058456 320.33681534 -178.65601288 319.52128693 -177.8167572 318.68104553 C-176.10440807 316.96801992 -174.39081158 315.25624035 -172.67602539 313.5456543 C-170.06997985 310.94496448 -167.46931478 308.33898044 -164.86914062 305.73242188 C-163.19563301 304.05957514 -161.52181518 302.38703866 -159.84765625 300.71484375 C-159.0797023 299.94486557 -158.31174835 299.17488739 -157.52052307 298.38157654 C-153.39302017 294.2717129 -149.18568017 290.31815634 -144.76548767 286.52394104 C-141.94359626 284.088129 -139.2267174 281.54117777 -136.5 279 C-131.73472329 274.58390012 -126.93147925 270.2307362 -122 266 C-121.5148291 265.58314941 -121.0296582 265.16629883 -120.52978516 264.73681641 C-117.59679316 262.21719324 -114.66093619 259.70095428 -111.72265625 257.1875 C-109.26836295 255.08768 -106.8179562 252.98347363 -104.37109375 250.875 C-98.26931514 245.62120019 -92.12461024 240.4406199 -85.87109375 235.3671875 C-81.7839589 231.99738652 -77.77374376 228.53996601 -73.76953125 225.07226562 C-65.565666 217.98796455 -65.565666 217.98796455 -62.0625 218.0625 C-57.40682785 219.48770576 -54.78300368 221.76366734 -52.18041992 225.87304688 C-47.77698559 234.87031304 -44.39169227 243.97585805 -41.3125 253.5 C-40.62204047 255.62881592 -39.92823195 257.75621476 -39.22319031 259.88024902 C-38.59098107 261.785126 -37.9714461 263.6941961 -37.3527832 265.60351562 C-34.90645517 271.74560469 -32.29053213 275.55651482 -26.30078125 278.24023438 C-22.1106077 279.62391647 -17.88124007 279.94433209 -13.5 280.25 C-12.12328125 280.36601563 -12.12328125 280.36601563 -10.71875 280.484375 C-8.47991678 280.67094443 -6.24103249 280.84248743 -4 281 C-3.97421875 280.34 -3.9484375 279.68 -3.921875 279 C-3.21495814 266.66108746 -1.43297051 253.97627775 1.49671936 241.96322632 C3.31113193 234.1386325 3.33283533 226.36123735 3.37890625 218.375 C3.39487388 216.84242326 3.41174133 215.30985566 3.42944336 213.77729797 C3.46531847 210.53088963 3.49561796 207.28449948 3.52127075 204.03799438 C3.56141072 198.97598354 3.61402433 193.91415639 3.66967773 188.85229492 C3.68350416 187.59133074 3.68350416 187.59133074 3.6976099 186.30489254 C3.71624043 184.60731211 3.73490856 182.90973209 3.75361443 181.21215248 C3.78125067 178.66790729 3.80769149 176.12365198 3.83387756 173.57939148 C3.98795745 158.82169698 4.2479695 144.06770112 4.5625 129.3125 C4.58482697 128.24862061 4.60715393 127.18474121 4.63015747 126.08862305 C4.74978853 120.39233135 4.87278308 114.69612722 5 109 C4.42142085 109.15681087 3.8428417 109.31362173 3.24672985 109.47518444 C-0.40241535 110.32759141 -4.1281514 110.49753781 -7.85620117 110.78442383 C-9.2020504 110.89204796 -9.2020504 110.89204796 -10.5750885 111.00184631 C-13.56413907 111.24008484 -16.55354474 111.47352923 -19.54296875 111.70703125 C-21.66191533 111.87507073 -23.7808368 112.04342708 -25.8997345 112.21208191 C-31.52449928 112.65900401 -37.1495689 113.1019668 -42.77471924 113.54400635 C-51.57985655 114.23673279 -60.38447432 114.93605607 -69.18921089 115.63385391 C-72.49256259 115.89548912 -75.79595391 116.15661976 -79.09934998 116.41769409 C-96.49553685 117.79388441 -113.88870593 119.20561277 -131.28044128 120.63691711 C-149.84811645 122.16311511 -168.42278135 123.59525866 -187 125 C-187.59357364 131.91313005 -188.15149365 138.82353231 -188.5625 145.75 C-188.62727539 146.81347656 -188.62727539 146.81347656 -188.69335938 147.8984375 C-188.79676504 149.59888626 -188.8985702 151.29943224 -189 153 C-187.73285156 153.19335938 -186.46570313 153.38671875 -185.16015625 153.5859375 C-183.46091358 153.84880377 -181.76169617 154.11183336 -180.0625 154.375 C-179.23169922 154.50132812 -178.40089844 154.62765625 -177.54492188 154.7578125 C-176.71669922 154.88671875 -175.88847656 155.015625 -175.03515625 155.1484375 C-173.91185913 155.32125244 -173.91185913 155.32125244 -172.76586914 155.49755859 C-170.45860834 155.91669027 -168.19139096 156.40016038 -165.90576172 156.92016602 C-160.45578432 158.14709023 -154.96994703 159.13956503 -149.47265625 160.12890625 C-147.27798223 160.52792569 -145.08332114 160.92701626 -142.88867188 161.32617188 C-139.45649824 161.94829502 -136.02414949 162.56942451 -132.59155273 163.18920898 C-129.25977103 163.79148077 -125.92868146 164.39746664 -122.59765625 165.00390625 C-121.56439713 165.18933487 -120.531138 165.37476349 -119.46656799 165.56581116 C-118.51475143 165.73946701 -117.56293488 165.91312286 -116.58227539 166.09204102 C-115.74338272 166.24367203 -114.90449005 166.39530304 -114.04017639 166.55152893 C-112 167 -112 167 -110 168 C-109.80495613 172.9333946 -109.85708479 177.27117497 -112.64111328 181.48242188 C-114.85076266 183.87029349 -117.14755448 186.07023919 -119.5625 188.25 C-120.74295898 189.37535156 -120.74295898 189.37535156 -121.94726562 190.5234375 C-126.27953994 194.62356192 -130.74706034 198.56701631 -135.2512207 202.4765625 C-137.46949085 204.40899384 -139.64121706 206.39004432 -141.8125 208.375 C-146.079589 212.22705299 -150.4810325 215.86937849 -154.94921875 219.484375 C-158.52056748 222.42925155 -162.01208792 225.45723198 -165.5 228.5 C-170.68190095 233.01735479 -175.9248251 237.43610082 -181.265625 241.765625 C-186.00785942 245.64070798 -190.66315102 249.61826557 -195.32958984 253.58398438 C-197.00375841 255.00318603 -198.68271475 256.41650771 -200.36328125 257.828125 C-206.2490339 262.77666685 -212.0535477 267.7892183 -217.74609375 272.9609375 C-219.7688269 274.79086247 -221.81369435 276.58881728 -223.875 278.375 C-225.25174617 279.58134341 -226.62662347 280.78982177 -228 282 C-228.77730469 282.68320312 -229.55460938 283.36640625 -230.35546875 284.0703125 C-237.15252538 290.17098959 -243.676873 296.5445892 -250.15597534 302.97973633 C-251.16094902 303.97732064 -252.16751086 304.97330809 -253.17581177 305.9675293 C-259.18388731 311.89953739 -264.80478946 317.99902126 -270.08081055 324.60595703 C-271.58459424 326.48181289 -273.1088527 328.29440418 -274.72265625 330.07421875 C-293.17930351 350.68773631 -306.83765164 375.41113364 -317 401 C-317.45632813 402.12792969 -317.91265625 403.25585938 -318.3828125 404.41796875 C-319.26608612 406.60762258 -320.13554676 408.80284803 -321 411 C-324.3 411 -327.6 411 -331 411 C-335.19240081 398.2826261 -339.02995922 385.52437879 -342.45019531 372.57714844 C-343.93877505 366.94240222 -345.46609888 361.3284518 -347.11572266 355.73876953 C-350.4504637 344.42588838 -353.32498533 333.00190724 -356.1875 321.5625 C-356.51205673 320.26937897 -356.51205673 320.26937897 -356.84317017 318.95013428 C-373.54634128 252.28820764 -378.85943905 182.24886005 -342.53833008 121.00952148 C-336.84451434 111.67556463 -330.11227646 103.28365532 -323 95 C-322.2059375 94.07445312 -321.411875 93.14890625 -320.59375 92.1953125 C-312.01247609 82.46365042 -302.90265927 73.29186508 -292.6640625 65.3046875 C-290.73293301 63.79060945 -288.82037873 62.25425986 -286.90625 60.71875 C-248.01949731 29.73386733 -201.61541264 8.05036466 -153.02294922 -2.55761719 C-151.14727067 -2.96779454 -149.27831825 -3.40840764 -147.41015625 -3.8515625 C-135.77396528 -6.44320008 -123.89212189 -7.48920431 -112.046875 -8.68579102 C-110.21714953 -8.87448145 -108.38845793 -9.07442144 -106.5625 -9.29663086 C-71.52725741 -13.40464689 -33.80476735 -9.65016108 0 0 Z " fill="#022A68" transform="translate(510,451)"/>
<path d="M0 0 C0.75039551 0.20737793 1.50079102 0.41475586 2.27392578 0.62841797 C45.60991731 12.70137687 88.65242995 37.39596072 112 77 C128.73474348 106.89666184 133.15578844 141.80826674 124.16796875 175.08007812 C115.6091279 204.64858386 101.37559321 231.42841163 83 256 C82.59958496 256.53931152 82.19916992 257.07862305 81.78662109 257.63427734 C75.63606501 265.89033994 69.06864513 273.74194478 62.29980469 281.49609375 C61.20487906 282.76294985 60.13462217 284.05106619 59.0703125 285.34375 C54.35302529 291.03157955 48.82464434 295.49210483 43 300 C42.1740332 300.64195312 41.34806641 301.28390625 40.49707031 301.9453125 C37.67021536 304.13744535 34.8365757 306.32046245 32 308.5 C30.60080322 309.57894531 30.60080322 309.57894531 29.17333984 310.6796875 C28.2911377 311.35257813 27.40893555 312.02546875 26.5 312.71875 C25.7059375 313.32654297 24.911875 313.93433594 24.09375 314.56054688 C22 316 22 316 19 317 C18.78085937 316.24976563 18.56171875 315.49953125 18.3359375 314.7265625 C13.99915601 300.72898323 7.03963957 290.33734278 -5 282 C-3.47229329 270.47275847 -1.74705881 259.04647499 0.64160156 247.66308594 C0.88475098 246.50341309 0.88475098 246.50341309 1.1328125 245.3203125 C1.27605957 244.65273926 1.41930664 243.98516602 1.56689453 243.29736328 C2.58704804 237.88606423 3.13029664 232.61982287 3.18945312 227.11401367 C3.19776626 226.4608678 3.20607939 225.80772192 3.21464443 225.13478374 C3.24108162 222.97920476 3.26112745 220.82361514 3.28125 218.66796875 C3.29907822 217.13110844 3.31736348 215.59425337 3.33607483 214.05740356 C3.37510009 210.79306225 3.41153031 207.5287071 3.4458313 204.26431274 C3.52642535 196.61907414 3.62059566 188.97399899 3.71469307 181.32891655 C3.73565652 179.62284979 3.75646271 177.9167811 3.77711296 176.21071053 C3.96674449 160.57630867 4.23384059 144.94465875 4.5625 129.3125 C4.58473633 128.24889252 4.60697266 127.18528503 4.62988281 126.08944702 C4.74957195 120.39288036 4.87277692 114.69640324 5 109 C4.42142085 109.15681087 3.8428417 109.31362173 3.24672985 109.47518444 C-0.40241535 110.32759141 -4.1281514 110.49753781 -7.85620117 110.78442383 C-9.2020504 110.89204796 -9.2020504 110.89204796 -10.5750885 111.00184631 C-13.56413907 111.24008484 -16.55354474 111.47352923 -19.54296875 111.70703125 C-21.66191533 111.87507073 -23.7808368 112.04342708 -25.8997345 112.21208191 C-31.52449928 112.65900401 -37.1495689 113.1019668 -42.77471924 113.54400635 C-51.57985655 114.23673279 -60.38447432 114.93605607 -69.18921089 115.63385391 C-72.49256259 115.89548912 -75.79595391 116.15661976 -79.09934998 116.41769409 C-96.49553685 117.79388441 -113.88870593 119.20561277 -131.28044128 120.63691711 C-149.84811645 122.16311511 -168.42278135 123.59525866 -187 125 C-187.59357364 131.91313005 -188.15149365 138.82353231 -188.5625 145.75 C-188.62727539 146.81347656 -188.62727539 146.81347656 -188.69335938 147.8984375 C-188.79676504 149.59888626 -188.8985702 151.29943224 -189 153 C-187.73285156 153.19335938 -186.46570313 153.38671875 -185.16015625 153.5859375 C-183.46091358 153.84880377 -181.76169617 154.11183336 -180.0625 154.375 C-179.23169922 154.50132812 -178.40089844 154.62765625 -177.54492188 154.7578125 C-176.71669922 154.88671875 -175.88847656 155.015625 -175.03515625 155.1484375 C-173.91185913 155.32125244 -173.91185913 155.32125244 -172.76586914 155.49755859 C-170.45860834 155.91669027 -168.19139096 156.40016038 -165.90576172 156.92016602 C-160.45578432 158.14709023 -154.96994703 159.13956503 -149.47265625 160.12890625 C-147.27798223 160.52792569 -145.08332114 160.92701626 -142.88867188 161.32617188 C-139.45649824 161.94829502 -136.02414949 162.56942451 -132.59155273 163.18920898 C-129.25977103 163.79148077 -125.92868146 164.39746664 -122.59765625 165.00390625 C-121.56439713 165.18933487 -120.531138 165.37476349 -119.46656799 165.56581116 C-118.51475143 165.73946701 -117.56293488 165.91312286 -116.58227539 166.09204102 C-115.74338272 166.24367203 -114.90449005 166.39530304 -114.04017639 166.55152893 C-112 167 -112 167 -110 168 C-109.80495613 172.9333946 -109.85708479 177.27117497 -112.64111328 181.48242188 C-114.85076266 183.87029349 -117.14755448 186.07023919 -119.5625 188.25 C-120.74295898 189.37535156 -120.74295898 189.37535156 -121.94726562 190.5234375 C-126.27953994 194.62356192 -130.74706034 198.56701631 -135.2512207 202.4765625 C-137.46949085 204.40899384 -139.64121706 206.39004432 -141.8125 208.375 C-146.079589 212.22705299 -150.4810325 215.86937849 -154.94921875 219.484375 C-158.52056748 222.42925155 -162.01208792 225.45723198 -165.5 228.5 C-170.68190095 233.01735479 -175.9248251 237.43610082 -181.265625 241.765625 C-186.00785942 245.64070798 -190.66315102 249.61826557 -195.32958984 253.58398438 C-197.00375841 255.00318603 -198.68271475 256.41650771 -200.36328125 257.828125 C-206.2490339 262.77666685 -212.0535477 267.7892183 -217.74609375 272.9609375 C-219.7688269 274.79086247 -221.81369435 276.58881728 -223.875 278.375 C-225.25174617 279.58134341 -226.62662347 280.78982177 -228 282 C-228.77730469 282.68320312 -229.55460938 283.36640625 -230.35546875 284.0703125 C-237.15252538 290.17098959 -243.676873 296.5445892 -250.15597534 302.97973633 C-251.16094902 303.97732064 -252.16751086 304.97330809 -253.17581177 305.9675293 C-259.18388731 311.89953739 -264.80478946 317.99902126 -270.08081055 324.60595703 C-271.58459424 326.48181289 -273.1088527 328.29440418 -274.72265625 330.07421875 C-293.17930351 350.68773631 -306.83765164 375.41113364 -317 401 C-317.45632813 402.12792969 -317.91265625 403.25585938 -318.3828125 404.41796875 C-319.26608612 406.60762258 -320.13554676 408.80284803 -321 411 C-324.3 411 -327.6 411 -331 411 C-335.19240081 398.2826261 -339.02995922 385.52437879 -342.45019531 372.57714844 C-343.93877505 366.94240222 -345.46609888 361.3284518 -347.11572266 355.73876953 C-350.4504637 344.42588838 -353.32498533 333.00190724 -356.1875 321.5625 C-356.51205673 320.26937897 -356.51205673 320.26937897 -356.84317017 318.95013428 C-373.54634128 252.28820764 -378.85943905 182.24886005 -342.53833008 121.00952148 C-336.84451434 111.67556463 -330.11227646 103.28365532 -323 95 C-322.2059375 94.07445312 -321.411875 93.14890625 -320.59375 92.1953125 C-312.01247609 82.46365042 -302.90265927 73.29186508 -292.6640625 65.3046875 C-290.73293301 63.79060945 -288.82037873 62.25425986 -286.90625 60.71875 C-248.01949731 29.73386733 -201.61541264 8.05036466 -153.02294922 -2.55761719 C-151.14727067 -2.96779454 -149.27831825 -3.40840764 -147.41015625 -3.8515625 C-135.77396528 -6.44320008 -123.89212189 -7.48920431 -112.046875 -8.68579102 C-110.21714953 -8.87448145 -108.38845793 -9.07442144 -106.5625 -9.29663086 C-71.52725741 -13.40464689 -33.80476735 -9.65016108 0 0 Z " fill="#013014" transform="translate(510,451)"/>
<path d="M0 0 C0.79148437 0.73347656 1.58296875 1.46695312 2.3984375 2.22265625 C2.88151367 2.67012207 3.36458984 3.11758789 3.86230469 3.57861328 C23.57562077 22.03901666 36.7466549 48.47239268 37.69921875 75.80859375 C37.71857093 77.73818816 37.72199067 79.66799645 37.7109375 81.59765625 C37.70356567 83.14815674 37.70356567 83.14815674 37.69604492 84.72998047 C37.29197897 111.85420225 29.63175691 136.11265441 12.3984375 157.22265625 C11.93308594 157.85171875 11.46773437 158.48078125 10.98828125 159.12890625 C-2.88802872 177.12143049 -27.73654596 187.96387021 -49.6015625 191.53515625 C-80.63375849 194.93953218 -111.7998119 190.72619532 -137.08203125 171.28125 C-158.6975061 153.62023412 -173.11082085 129.71211584 -176.4074707 101.65917969 C-178.93804465 69.89172309 -174.13914565 39.42430885 -153.6015625 14.22265625 C-152.58835937 12.96388672 -152.58835937 12.96388672 -151.5546875 11.6796875 C-134.74305964 -8.1077212 -109.66296166 -20.31127865 -83.95410156 -22.61621094 C-54.28340577 -24.64845038 -23.30760161 -20.00635428 0 0 Z " fill="#010101" transform="translate(3004.6015625,480.77734375)"/>
<path d="M0 0 C0.79148437 0.73347656 1.58296875 1.46695312 2.3984375 2.22265625 C2.88151367 2.67012207 3.36458984 3.11758789 3.86230469 3.57861328 C23.57562077 22.03901666 36.7466549 48.47239268 37.69921875 75.80859375 C37.71857093 77.73818816 37.72199067 79.66799645 37.7109375 81.59765625 C37.70356567 83.14815674 37.70356567 83.14815674 37.69604492 84.72998047 C37.29197897 111.85420225 29.63175691 136.11265441 12.3984375 157.22265625 C11.93308594 157.85171875 11.46773437 158.48078125 10.98828125 159.12890625 C-2.88802872 177.12143049 -27.73654596 187.96387021 -49.6015625 191.53515625 C-80.63375849 194.93953218 -111.7998119 190.72619532 -137.08203125 171.28125 C-158.6975061 153.62023412 -173.11082085 129.71211584 -176.4074707 101.65917969 C-178.93804465 69.89172309 -174.13914565 39.42430885 -153.6015625 14.22265625 C-152.58835937 12.96388672 -152.58835937 12.96388672 -151.5546875 11.6796875 C-134.74305964 -8.1077212 -109.66296166 -20.31127865 -83.95410156 -22.61621094 C-54.28340577 -24.64845038 -23.30760161 -20.00635428 0 0 Z " fill="#010101" transform="translate(2041.6015625,480.77734375)"/>
<path d="M0 0 C133.65280289 0 133.65280289 0 160.19140625 26.16015625 C176.24202855 43.4290421 179.93519305 64.54429663 179.15234375 87.31738281 C177.98589012 107.85743493 169.64257554 126.91041382 154.59765625 140.94921875 C135.64941659 157.62721041 110.55915749 163.21690482 85.96484375 163.09765625 C84.97133911 163.09664917 83.97783447 163.09564209 82.95422363 163.09460449 C79.28197049 163.08941591 75.60973395 163.07545503 71.9375 163.0625 C63.708125 163.041875 55.47875 163.02125 47 163 C47 192.37 47 221.74 47 252 C31.49 252 15.98 252 0 252 C0 168.84 0 85.68 0 0 Z " fill="#02266A" transform="translate(2182,420)"/>
<path d="M0 0 C133.65280289 0 133.65280289 0 160.19140625 26.16015625 C176.24202855 43.4290421 179.93519305 64.54429663 179.15234375 87.31738281 C177.98589012 107.85743493 169.64257554 126.91041382 154.59765625 140.94921875 C135.64941659 157.62721041 110.55915749 163.21690482 85.96484375 163.09765625 C84.97133911 163.09664917 83.97783447 163.09564209 82.95422363 163.09460449 C79.28197049 163.08941591 75.60973395 163.07545503 71.9375 163.0625 C63.708125 163.041875 55.47875 163.02125 47 163 C47 192.37 47 221.74 47 252 C31.49 252 15.98 252 0 252 C0 168.84 0 85.68 0 0 Z " fill="#023115" transform="translate(769,420)"/>
<path d="M0 0 C0.98162109 -0.01224609 1.96324219 -0.02449219 2.97460938 -0.03710938 C21.07190361 -0.07304047 36.1630465 6.19900642 49.4375 18.5 C67.92115927 38.00070273 69.40154419 63.94969268 68.92449951 89.28736877 C68.69191103 97.65066841 67.24987775 105.25660934 64.6875 113.1875 C64.47319336 113.88794434 64.25888672 114.58838867 64.03808594 115.31005859 C55.7348841 142.17158128 40.02956767 167.65549252 14.625 181.234375 C-4.70299351 191.07515218 -27.8376644 197.64862445 -49.3125 191.1875 C-50.10527344 190.95417969 -50.89804687 190.72085938 -51.71484375 190.48046875 C-69.85018541 184.20615623 -80.35186764 169.04350879 -88.5625 152.69921875 C-89.65570025 150.22670725 -90.50717149 147.7688655 -91.3125 145.1875 C-91.68375 144.03507813 -92.055 142.88265625 -92.4375 141.6953125 C-95.34507033 131.53747058 -95.68931924 121.42999033 -95.6875 110.9375 C-95.68931274 110.26289734 -95.69112549 109.58829468 -95.69299316 108.89324951 C-95.68371288 78.34718879 -86.43512901 51.25185083 -66.3125 28.1875 C-65.72082031 27.49527344 -65.12914062 26.80304688 -64.51953125 26.08984375 C-48.13078581 8.32525302 -23.57772969 0.01530028 0 0 Z " fill="#022A68" transform="translate(621.3125,219.8125)"/>
<path d="M0 0 C12.54 0 25.08 0 38 0 C45.50689448 7.50689448 49.76981367 16.40447273 54.40234375 25.8671875 C56.15875198 29.31129361 58.05880113 32.65827021 60 36 C62.3822696 40.10720822 64.6651491 44.23218756 66.75 48.5 C69.49246406 54.08786243 72.44491028 59.54363941 75.4375 65 C80.80000098 74.77783257 86.08537542 84.59533109 91.33691406 94.43310547 C94.43116665 100.22605157 97.5433413 106.00802126 100.703125 111.765625 C101.5839978 113.3746167 101.5839978 113.3746167 102.48266602 115.01611328 C103.57995756 117.01710289 104.68166208 119.01568214 105.78881836 121.01123047 C114 136.0048668 114 136.0048668 114 142 C114.66 142 115.32 142 116 142 C116.1863501 140.9028064 116.1863501 140.9028064 116.37646484 139.78344727 C116.97890467 137.09416908 117.79879361 134.94764381 118.9765625 132.46484375 C119.39180176 131.58836182 119.80704102 130.71187988 120.23486328 129.80883789 C120.6936084 128.86129639 121.15235352 127.91375488 121.625 126.9375 C122.11081543 125.92872803 122.59663086 124.91995605 123.09716797 123.88061523 C128.40303185 112.98722636 134.15442292 102.33830188 139.92959595 91.68888855 C142.47809562 86.98286944 144.9912496 82.25878913 147.4921875 77.52734375 C147.86876495 76.81542374 148.24534241 76.10350372 148.6333313 75.37001038 C150.11184095 72.57419093 151.5900671 69.77823291 153.06402588 66.98001099 C157.04736086 59.42029373 161.15021857 51.96136723 165.49462891 44.60058594 C167.38485409 41.33514989 169.04911158 38.02398763 170.6875 34.625 C174.06391945 27.76742599 177.58300935 20.99039199 181.1875 14.25 C181.68660889 13.29689941 182.18571777 12.34379883 182.69995117 11.36181641 C183.18439697 10.46382324 183.66884277 9.56583008 184.16796875 8.640625 C184.80641724 7.44228027 184.80641724 7.44228027 185.45776367 6.21972656 C187 4 187 4 192 0 C204.21 0 216.42 0 229 0 C229 69.63 229 139.26 229 211 C217.78 211 206.56 211 195 211 C194.67 161.5 194.34 112 194 61 C189.71 69.25 185.42 77.5 181 86 C174.9375 97.125 174.9375 97.125 171.96484375 102.5390625 C168.89914898 108.15293285 165.94280226 113.82097504 163 119.5 C158.63875856 127.91633138 154.16714994 136.26200138 149.57910156 144.55688477 C146.82892617 149.55447191 144.18295067 154.58651463 141.63671875 159.69140625 C141.07138428 160.81498535 140.5060498 161.93856445 139.92358398 163.09619141 C138.83900383 165.26155449 137.76855791 167.43407824 136.71508789 169.61474609 C133.54035542 175.9273015 130.29286994 181.42480101 124 185 C120.90827016 185.8799854 118.13419392 185.94535666 114.9375 185.8125 C114.17373047 185.83119141 113.40996094 185.84988281 112.62304688 185.86914062 C107.68697518 185.78891363 104.35143968 184.76156698 100.78491211 181.29956055 C96.4656798 175.73495255 93.4852739 169.25960889 90.3125 163 C89.51238485 161.45011788 88.71052981 159.90113278 87.90698242 158.35302734 C86.31827527 155.29102395 84.73530093 152.22617244 83.15625 149.15917969 C80.45814508 143.93522073 77.65208632 138.77319709 74.8125 133.625 C70.3666459 125.52650672 65.98199961 117.39662444 61.625 109.25 C60.99276383 108.06811167 60.360521 106.88622689 59.72827148 105.7043457 C59.41498398 105.11870346 59.10169647 104.53306122 58.77891541 103.92967224 C58.46515457 103.34315384 58.15139374 102.75663544 57.828125 102.15234375 C57.51367935 101.564496 57.1992337 100.97664825 56.8752594 100.37098694 C53.38439914 93.84652567 49.88144147 87.32859815 46.375 80.8125 C45.52349365 79.22840332 45.52349365 79.22840332 44.65478516 77.61230469 C44.11644043 76.61231445 43.5780957 75.61232422 43.0234375 74.58203125 C42.55856934 73.71811768 42.09370117 72.8542041 41.61474609 71.96411133 C39.43475008 67.96239805 37.21306646 63.98351962 35 60 C35 109.83 35 159.66 35 211 C23.45 211 11.9 211 0 211 C0 141.37 0 71.74 0 0 Z " fill="#010101" transform="translate(1218,460)"/>
<path d="M0 0 C109.38929521 0 109.38929521 0 130.4140625 19.28125 C140.85760968 30.59937995 145.40459483 43.48132735 145.3125 58.6875 C145.30686035 59.65993652 145.3012207 60.63237305 145.29541016 61.63427734 C145.00125251 79.12355132 139.48913423 92.66133726 127 105 C126.38511719 105.63679687 125.77023437 106.27359375 125.13671875 106.9296875 C118.58119993 113.24656859 109.06481731 118.66844492 100 120 C100 120.66 100 121.32 100 122 C100.680625 122.165 101.36125 122.33 102.0625 122.5 C108.9225243 126.00299113 113.28970346 133.60143631 117.375 139.9375 C118.41933072 141.52946141 119.46498054 143.12055801 120.51171875 144.7109375 C121.07036621 145.56139648 121.62901367 146.41185547 122.20458984 147.28808594 C125.4858274 152.24429845 128.83956686 157.15120472 132.1875 162.0625 C132.8993042 163.10784912 133.6111084 164.15319824 134.34448242 165.23022461 C136.18460755 167.93237553 138.02533056 170.634118 139.86621094 173.33575439 C142.56439225 177.29631156 145.26065202 181.25817646 147.95629883 185.22045898 C149.4010067 187.34396931 150.84612955 189.46719739 152.29174805 191.59008789 C154.19770125 194.39123688 156.10003871 197.19478408 158 200 C158.60021973 200.88429688 159.20043945 201.76859375 159.81884766 202.6796875 C160.36976074 203.49695313 160.92067383 204.31421875 161.48828125 205.15625 C161.97466064 205.87619141 162.46104004 206.59613281 162.9621582 207.33789062 C164 209 164 209 164 210 C158.12846769 210.09911689 152.25742587 210.17158611 146.38525391 210.21972656 C144.38907382 210.23980169 142.39295225 210.26706789 140.39697266 210.30175781 C137.5223138 210.35045657 134.6484346 210.37300986 131.7734375 210.390625 C130.44184097 210.42159271 130.44184097 210.42159271 129.08334351 210.45318604 C123.54583684 210.45517673 120.28920437 209.83155501 116 206 C114.12257073 203.76611942 112.53092831 201.40521812 110.953125 198.953125 C110.49701843 198.26426208 110.04091187 197.57539917 109.57098389 196.86566162 C108.11965319 194.66745453 106.68488491 192.45896756 105.25 190.25 C104.30310914 188.81312555 103.35519988 187.37692169 102.40625 185.94140625 C97.35991445 178.28255042 92.44759111 170.54711909 87.60682678 162.75709534 C83.59299913 156.31335921 79.43173349 149.98201279 75.1875 143.6875 C74.46369141 142.59244141 73.73988281 141.49738281 72.99414062 140.36914062 C72.28837891 139.32306641 71.58261719 138.27699219 70.85546875 137.19921875 C69.92190552 135.80449341 69.92190552 135.80449341 68.96948242 134.3815918 C66.82234593 131.51608453 66.82234593 131.51608453 62 129 C50.615 128.505 50.615 128.505 39 128 C39 155.06 39 182.12 39 210 C26.13 210 13.26 210 0 210 C0 140.7 0 71.4 0 0 Z " fill="#000000" transform="translate(1708,461)"/>
<path d="M0 0 C109.38929521 0 109.38929521 0 130.4140625 19.28125 C140.85760968 30.59937995 145.40459483 43.48132735 145.3125 58.6875 C145.30686035 59.65993652 145.3012207 60.63237305 145.29541016 61.63427734 C145.00125251 79.12355132 139.48913423 92.66133726 127 105 C126.38511719 105.63679687 125.77023437 106.27359375 125.13671875 106.9296875 C118.58119993 113.24656859 109.06481731 118.66844492 100 120 C100 120.66 100 121.32 100 122 C100.680625 122.165 101.36125 122.33 102.0625 122.5 C108.9225243 126.00299113 113.28970346 133.60143631 117.375 139.9375 C118.41933072 141.52946141 119.46498054 143.12055801 120.51171875 144.7109375 C121.07036621 145.56139648 121.62901367 146.41185547 122.20458984 147.28808594 C125.4858274 152.24429845 128.83956686 157.15120472 132.1875 162.0625 C132.8993042 163.10784912 133.6111084 164.15319824 134.34448242 165.23022461 C136.18460755 167.93237553 138.02533056 170.634118 139.86621094 173.33575439 C142.56439225 177.29631156 145.26065202 181.25817646 147.95629883 185.22045898 C149.4010067 187.34396931 150.84612955 189.46719739 152.29174805 191.59008789 C154.19770125 194.39123688 156.10003871 197.19478408 158 200 C158.60021973 200.88429688 159.20043945 201.76859375 159.81884766 202.6796875 C160.36976074 203.49695313 160.92067383 204.31421875 161.48828125 205.15625 C161.97466064 205.87619141 162.46104004 206.59613281 162.9621582 207.33789062 C164 209 164 209 164 210 C158.12846769 210.09911689 152.25742587 210.17158611 146.38525391 210.21972656 C144.38907382 210.23980169 142.39295225 210.26706789 140.39697266 210.30175781 C137.5223138 210.35045657 134.6484346 210.37300986 131.7734375 210.390625 C130.44184097 210.42159271 130.44184097 210.42159271 129.08334351 210.45318604 C123.54583684 210.45517673 120.28920437 209.83155501 116 206 C114.12257073 203.76611942 112.53092831 201.40521812 110.953125 198.953125 C110.49701843 198.26426208 110.04091187 197.57539917 109.57098389 196.86566162 C108.11965319 194.66745453 106.68488491 192.45896756 105.25 190.25 C104.30310914 188.81312555 103.35519988 187.37692169 102.40625 185.94140625 C97.35991445 178.28255042 92.44759111 170.54711909 87.60682678 162.75709534 C83.59299913 156.31335921 79.43173349 149.98201279 75.1875 143.6875 C74.46369141 142.59244141 73.73988281 141.49738281 72.99414062 140.36914062 C72.28837891 139.32306641 71.58261719 138.27699219 70.85546875 137.19921875 C69.92190552 135.80449341 69.92190552 135.80449341 68.96948242 134.3815918 C66.82234593 131.51608453 66.82234593 131.51608453 62 129 C50.615 128.505 50.615 128.505 39 128 C39 155.06 39 182.12 39 210 C26.13 210 13.26 210 0 210 C0 140.7 0 71.4 0 0 Z " fill="#000000" transform="translate(965,461)"/>
<path d="M0 0 C13.53 0 27.06 0 41 0 C47.90179406 15.52903663 53.98839183 31.39724624 60.1953125 47.21484375 C60.91862954 49.05707052 61.64194692 50.89929716 62.36528873 52.74151421 C63.10059319 54.61429521 63.83578325 56.48712109 64.57095337 58.35995483 C66.75072655 63.9122389 68.93202248 69.46392444 71.11328125 75.015625 C71.96615571 77.18651956 72.81902018 79.35741804 73.671875 81.52832031 C74.10177734 82.62261353 74.53167969 83.71690674 74.97460938 84.84436035 C76.36725409 88.38937814 77.75980629 91.93443226 79.15234375 95.47949219 C80.12889704 97.96549841 81.1054561 100.45150236 82.08203125 102.9375 C82.32536823 103.5569474 82.56870522 104.17639481 82.81941605 104.81461334 C86.48589915 114.14794438 90.15458023 123.48040908 93.82421875 132.8125 C110.19966855 174.4596015 110.19966855 174.4596015 117.45581055 193.07922363 C118.06253167 194.63582992 118.66977998 196.19223084 119.27758789 197.74841309 C120.09043121 199.83030604 120.90107861 201.91303838 121.7109375 203.99609375 C122.38068604 205.71590454 122.38068604 205.71590454 123.06396484 207.47045898 C124 210 124 210 124 211 C119.00135167 211.14903087 114.00401358 211.25753175 109.00366211 211.32958984 C107.3051906 211.35964557 105.60687281 211.40050347 103.90893555 211.45263672 C101.45843505 211.52595765 99.00999617 211.55956538 96.55859375 211.5859375 C95.80726669 211.61690521 95.05593964 211.64787292 94.28184509 211.67977905 C89.14606157 211.68301066 86.19026822 210.43570663 82.4875946 206.84750366 C79.91982458 203.65848663 78.6331423 200.22846712 77.32421875 196.3828125 C77.0281221 195.56682587 76.73202545 194.75083923 76.42695618 193.91012573 C75.49370755 191.32176573 74.59077851 188.72394897 73.6875 186.125 C73.06371721 184.38865061 72.43808157 182.65296569 71.81054688 180.91796875 C70.66332065 177.71613079 69.51797451 174.51384156 68.40112305 171.30126953 C68.17796921 170.66206573 67.95481537 170.02286194 67.72489929 169.36428833 C66.677772 165.94904035 65.86637834 162.46551336 65 159 C35.96 159 6.92 159 -23 159 C-23.99 162.3 -24.98 165.6 -26 169 C-26.9052469 171.6719772 -27.82226434 174.33080457 -28.77734375 176.984375 C-29.02996475 177.68846497 -29.28258575 178.39255493 -29.54286194 179.11798096 C-30.07156547 180.5871786 -30.60180111 182.05582577 -31.13354492 183.52392578 C-31.93992866 185.75672473 -32.73463368 187.99347597 -33.52929688 190.23046875 C-34.04876608 191.66952844 -34.56892445 193.10833959 -35.08984375 194.546875 C-35.3222728 195.20637146 -35.55470184 195.86586792 -35.79417419 196.54534912 C-37.7965198 202.00596528 -39.83723903 206.53901251 -44.74853516 209.85668945 C-48.58703154 211.20641753 -52.01032567 211.38015114 -56.0234375 211.29296875 C-56.76961334 211.28872391 -57.51578918 211.28447906 -58.28457642 211.28010559 C-60.64843098 211.26342382 -63.01140676 211.22579339 -65.375 211.1875 C-66.9856647 211.17243949 -68.59634287 211.15875348 -70.20703125 211.14648438 C-74.13835515 211.11355504 -78.06902901 211.06184762 -82 211 C-79.57694361 202.08823454 -76.19300477 193.63229451 -72.76651001 185.07131958 C-71.2658806 181.32142253 -69.77497167 177.56768308 -68.28343201 173.81416321 C-67.47541155 171.78085596 -66.66693956 169.74772811 -65.85804749 167.71476746 C-60.80568715 155.01198257 -55.80909681 142.28729825 -50.8125 129.5625 C-50.10731232 127.76730927 -50.10731232 127.76730927 -49.38787842 125.93585205 C-43.10513419 109.94078103 -36.84883636 93.93574303 -30.62988281 77.91577148 C-20.53043004 51.90055867 -10.25069147 25.95587931 0 0 Z " fill="#010101" transform="translate(2422,460)"/>
<path d="M0 0 C43.89 0 87.78 0 133 0 C133 10.23 133 20.46 133 31 C102.31 31 71.62 31 40 31 C40 50.47 40 69.94 40 90 C64.42 90 88.84 90 114 90 C114 99.9 114 109.8 114 120 C89.58 120 65.16 120 40 120 C40 139.8 40 159.6 40 180 C70.69 180 101.38 180 133 180 C133 190.23 133 200.46 133 211 C89.11 211 45.22 211 0 211 C0 141.37 0 71.74 0 0 Z " fill="#000000" transform="translate(1475,460)"/>
<path d="M0 0 C14.29072803 11.16661023 24.28026593 26.91236077 26.609375 45.1484375 C29.08708078 71.05471518 26.86775447 96.80121857 9.85546875 117.625 C-1.26049646 129.71799035 -17.00157577 136.44731187 -33.30859375 137.375 C-52.35317428 138.0042734 -69.73912229 133.88207122 -84.6171875 121.32421875 C-99.15314151 107.14570623 -105.97644405 87.17455878 -106.44287109 67.10302734 C-106.42426563 58.30264216 -105.72599425 49.64089526 -104 41 C-103.81695313 40.07316406 -103.63390625 39.14632812 -103.4453125 38.19140625 C-99.32010106 20.6465255 -89.08752388 6.69363811 -74 -3 C-51.71238129 -15.65911488 -21.17088663 -14.65676766 0 0 Z " fill="#FEFEFE" transform="translate(2974,502)"/>
<path d="M0 0 C14.29072803 11.16661023 24.28026593 26.91236077 26.609375 45.1484375 C29.08708078 71.05471518 26.86775447 96.80121857 9.85546875 117.625 C-1.26049646 129.71799035 -17.00157577 136.44731187 -33.30859375 137.375 C-52.35317428 138.0042734 -69.73912229 133.88207122 -84.6171875 121.32421875 C-99.15314151 107.14570623 -105.97644405 87.17455878 -106.44287109 67.10302734 C-106.42426563 58.30264216 -105.72599425 49.64089526 -104 41 C-103.81695313 40.07316406 -103.63390625 39.14632812 -103.4453125 38.19140625 C-99.32010106 20.6465255 -89.08752388 6.69363811 -74 -3 C-51.71238129 -15.65911488 -21.17088663 -14.65676766 0 0 Z " fill="#FEFEFE" transform="translate(2011,502)"/>
<path d="M0 0 C0.99 0.66 1.98 1.32 3 2 C2.11624861 7.3850468 -0.16919564 11.41318707 -2.8125 16.125 C-3.25142578 16.93582031 -3.69035156 17.74664062 -4.14257812 18.58203125 C-4.57634766 19.36191406 -5.01011719 20.14179688 -5.45703125 20.9453125 C-6.0444812 22.00516357 -6.0444812 22.00516357 -6.64379883 23.08642578 C-8.19944129 25.28140789 -9.7290005 26.56812767 -12 28 C-17.26524131 28.77493923 -20.15170264 27.07755373 -24.5625 24.3125 C-38.67166614 15.77129721 -53.82370337 11.39300925 -70.27734375 14.6484375 C-77.92251559 17.15751213 -83.65566498 21.33697653 -88 28.125 C-90.26229781 34.67531326 -90.25621731 43.06757555 -87.5 49.4375 C-79.77275604 62.08689252 -61.22131499 65.9916852 -48.04830933 70.23400879 C-27.31043625 76.9279014 -8.43993326 84.05733347 2.66015625 104.140625 C9.85122344 119.48715907 8.39094898 138.4544315 2.93359375 154.046875 C-4.13455776 172.42873438 -17.30932522 184.3115627 -34.8828125 192.3125 C-57.81931679 201.40685739 -85.74854381 198.45931948 -108 189 C-118.50496454 184.15610386 -129.04899759 178.50282328 -136 169 C-134.09672772 165.72119721 -132.17513172 162.45350835 -130.25 159.1875 C-129.44175781 157.7943457 -129.44175781 157.7943457 -128.6171875 156.37304688 C-128.08867187 155.48037109 -127.56015625 154.58769531 -127.015625 153.66796875 C-126.53383789 152.84578857 -126.05205078 152.0236084 -125.55566406 151.17651367 C-123.45531429 148.23793579 -121.52781747 146.37021885 -117.96582031 145.50708008 C-111.15617365 145.34764911 -107.19548123 147.82955698 -101.75 151.6875 C-90.72025047 159.09441019 -80.25050133 164.17576043 -66.75 164.1875 C-66.02425781 164.19974609 -65.29851563 164.21199219 -64.55078125 164.22460938 C-54.42032277 164.25169616 -44.69918955 161.29056437 -37.125 154.375 C-32.12317222 146.43092059 -29.78588831 138.39108081 -31 129 C-33.13715201 120.85114701 -38.16709013 116.60949688 -45.13110352 112.50463867 C-49.79858844 110.05670151 -54.66739145 108.50002896 -59.6875 106.9375 C-61.27014648 106.42509766 -61.27014648 106.42509766 -62.88476562 105.90234375 C-67.35738557 104.45620576 -71.84086944 103.04746715 -76.33203125 101.66015625 C-94.31459337 95.97238101 -112.65216365 87.53296184 -121.8125 70.0625 C-126.15531691 61.17305167 -127.5593802 52.57704802 -127.5 42.75 C-127.49427979 41.64897949 -127.48855957 40.54795898 -127.48266602 39.41357422 C-127.11430345 22.58796311 -119.99613587 8.99112894 -107.8828125 -2.640625 C-77.62368577 -27.40554715 -29.55586672 -24.4869186 0 0 Z " fill="#010101" transform="translate(2816,476)"/>
<path d="M0 0 C0.99 0.66 1.98 1.32 3 2 C2.11624861 7.3850468 -0.16919564 11.41318707 -2.8125 16.125 C-3.25142578 16.93582031 -3.69035156 17.74664062 -4.14257812 18.58203125 C-4.57634766 19.36191406 -5.01011719 20.14179688 -5.45703125 20.9453125 C-6.0444812 22.00516357 -6.0444812 22.00516357 -6.64379883 23.08642578 C-8.19944129 25.28140789 -9.7290005 26.56812767 -12 28 C-17.26524131 28.77493923 -20.15170264 27.07755373 -24.5625 24.3125 C-38.67166614 15.77129721 -53.82370337 11.39300925 -70.27734375 14.6484375 C-77.92251559 17.15751213 -83.65566498 21.33697653 -88 28.125 C-90.26229781 34.67531326 -90.25621731 43.06757555 -87.5 49.4375 C-79.77275604 62.08689252 -61.22131499 65.9916852 -48.04830933 70.23400879 C-27.31043625 76.9279014 -8.43993326 84.05733347 2.66015625 104.140625 C9.85122344 119.48715907 8.39094898 138.4544315 2.93359375 154.046875 C-4.13455776 172.42873438 -17.30932522 184.3115627 -34.8828125 192.3125 C-57.81931679 201.40685739 -85.74854381 198.45931948 -108 189 C-118.50496454 184.15610386 -129.04899759 178.50282328 -136 169 C-134.09672772 165.72119721 -132.17513172 162.45350835 -130.25 159.1875 C-129.44175781 157.7943457 -129.44175781 157.7943457 -128.6171875 156.37304688 C-128.08867187 155.48037109 -127.56015625 154.58769531 -127.015625 153.66796875 C-126.53383789 152.84578857 -126.05205078 152.0236084 -125.55566406 151.17651367 C-123.45531429 148.23793579 -121.52781747 146.37021885 -117.96582031 145.50708008 C-111.15617365 145.34764911 -107.19548123 147.82955698 -101.75 151.6875 C-90.72025047 159.09441019 -80.25050133 164.17576043 -66.75 164.1875 C-66.02425781 164.19974609 -65.29851563 164.21199219 -64.55078125 164.22460938 C-54.42032277 164.25169616 -44.69918955 161.29056437 -37.125 154.375 C-32.12317222 146.43092059 -29.78588831 138.39108081 -31 129 C-33.13715201 120.85114701 -38.16709013 116.60949688 -45.13110352 112.50463867 C-49.79858844 110.05670151 -54.66739145 108.50002896 -59.6875 106.9375 C-61.27014648 106.42509766 -61.27014648 106.42509766 -62.88476562 105.90234375 C-67.35738557 104.45620576 -71.84086944 103.04746715 -76.33203125 101.66015625 C-94.31459337 95.97238101 -112.65216365 87.53296184 -121.8125 70.0625 C-126.15531691 61.17305167 -127.5593802 52.57704802 -127.5 42.75 C-127.49427979 41.64897949 -127.48855957 40.54795898 -127.48266602 39.41357422 C-127.11430345 22.58796311 -119.99613587 8.99112894 -107.8828125 -2.640625 C-77.62368577 -27.40554715 -29.55586672 -24.4869186 0 0 Z " fill="#010101" transform="translate(2673,476)"/>
<path d="M0 0 C16.89829252 11.36264497 25.57165894 29.65121347 29.41015625 49.0703125 C33.06372482 70.5928442 29.41071015 93.38196531 17.11328125 111.62890625 C9.96704661 120.84567971 0.30143713 127.14061222 -11.31640625 128.84765625 C-31.86951596 130.51659619 -47.80317197 128.63908881 -64.015625 114.9453125 C-77.7821479 102.06347211 -85.33158154 81.66953179 -86.01953125 63.04296875 C-86.41158981 44.43704999 -83.0333894 27.4127185 -71.828125 12.1328125 C-71.29445313 11.40320313 -70.76078125 10.67359375 -70.2109375 9.921875 C-63.92784579 2.07552602 -55.31733827 -2.86226996 -45.828125 -5.8671875 C-44.76464844 -6.21523438 -43.70117188 -6.56328125 -42.60546875 -6.921875 C-28.01435964 -10.57342454 -12.85153434 -7.34812609 0 0 Z " fill="#023115" transform="translate(432.828125,263.8671875)"/>
<path d="M0 0 C0.89203125 -0.01417969 1.7840625 -0.02835937 2.703125 -0.04296875 C16.62340462 1.00997548 30.53636631 8.97692864 39.75 19.1875 C55.48324694 38.15466067 63.96107205 58.40138233 61.75 83.1875 C59.47570926 94.4038884 53.07089182 102.03157195 43.8125 108.421875 C33.5844974 114.3186316 23.3164587 115.508028 11.9375 113.125 C0.75364079 110.05266897 -8.64002274 103.80166138 -17.25 96.1875 C-17.85070312 95.68089844 -18.45140625 95.17429687 -19.0703125 94.65234375 C-30.13040049 84.59538002 -40.14908093 67.79576914 -41.45556641 52.83325195 C-42.07690587 36.84252336 -40.53843657 25.51724111 -29.5078125 13.25 C-21.84139197 5.8797073 -10.72189614 0.07658497 0 0 Z " fill="#023115" transform="translate(261.25,315.8125)"/>
<path d="M0 0 C13.2 0 26.4 0 40 0 C40 69.63 40 139.26 40 211 C26.8 211 13.6 211 0 211 C0 141.37 0 71.74 0 0 Z " fill="#010101" transform="translate(1633,460)"/>
<path d="M0 0 C13.2 0 26.4 0 40 0 C40 69.63 40 139.26 40 211 C26.8 211 13.6 211 0 211 C0 141.37 0 71.74 0 0 Z " fill="#010101" transform="translate(1145,460)"/>
<path d="M0 0 C6.64627818 5.06101776 12.04859271 10.61580763 16 18 C16.4125 18.75023437 16.825 19.50046875 17.25 20.2734375 C22.30323407 31.39757083 21.70193947 46.21776213 18 57.6875 C12.83836776 69.92462812 3.58296426 78.94184191 -8.56640625 84.17578125 C-22.24166715 88.80737042 -38.54907203 89.33638855 -51.95703125 83.6015625 C-64.97431704 76.75035945 -73.54538256 67.11887221 -78 53 C-81.06166728 42.20210506 -80.4470317 27.81432635 -75 18 C-67.64456417 5.3280704 -57.40262291 -2.71240995 -43.375 -6.8125 C-28.39356775 -10.18669645 -13.0684533 -8.27325705 0 0 Z " fill="#030303" transform="translate(1488,857)"/>
<path d="M0 0 C7.30125 -0.0825 14.6025 -0.165 22.125 -0.25 C25.53610107 -0.30462402 25.53610107 -0.30462402 29.01611328 -0.36035156 C45.31376803 -0.51199031 61.75416848 1.06461217 74.3125 12.6875 C82.29917827 21.2550276 85.40523608 31.86779653 85.25 43.375 C85.24178223 44.12031982 85.23356445 44.86563965 85.22509766 45.63354492 C84.98840637 57.33703845 82.2764731 67.8001441 74.5 76.9375 C73.675 77.618125 72.85 78.29875 72 79 C70.63875 80.2684375 70.63875 80.2684375 69.25 81.5625 C50.86096563 96.41339105 19.8198117 91 0 91 C0 60.97 0 30.94 0 0 Z " fill="#FEFEFE" transform="translate(2229,456)"/>
<path d="M0 0 C7.30125 -0.0825 14.6025 -0.165 22.125 -0.25 C25.53610107 -0.30462402 25.53610107 -0.30462402 29.01611328 -0.36035156 C45.31376803 -0.51199031 61.75416848 1.06461217 74.3125 12.6875 C82.29917827 21.2550276 85.40523608 31.86779653 85.25 43.375 C85.24178223 44.12031982 85.23356445 44.86563965 85.22509766 45.63354492 C84.98840637 57.33703845 82.2764731 67.8001441 74.5 76.9375 C73.675 77.618125 72.85 78.29875 72 79 C70.63875 80.2684375 70.63875 80.2684375 69.25 81.5625 C50.86096563 96.41339105 19.8198117 91 0 91 C0 60.97 0 30.94 0 0 Z " fill="#FEFEFE" transform="translate(816,456)"/>
<path d="M0 0 C57.73901844 0 57.73901844 0 69.234375 10.11328125 C76.50320672 17.88063904 78.48923441 26.21364712 78.3203125 36.7109375 C77.8393171 41.64993908 76.28387948 45.63118525 74 50 C73.443125 51.0725 72.88625 52.145 72.3125 53.25 C69.12706739 57.03808203 65.33817638 59.63829008 61 62 C60.34 62 59.68 62 59 62 C62.55895193 68.56700958 66.86310614 74.42812055 71.31054688 80.41601562 C74.29922189 84.48709427 76.9270293 88.38930005 79 93 C72.69256413 93.94121323 66.20730106 94.88162433 60 93 C54.00908062 88.47742785 50.48054067 80.5136478 47.62890625 73.74609375 C46.11421153 70.65827396 44.700415 69.12436619 42 67 C39.24001806 66.26361399 39.24001806 66.26361399 36.234375 66.17578125 C35.25307617 66.10657471 34.27177734 66.03736816 33.26074219 65.96606445 C28.17535702 65.84084339 23.0866294 65.94500941 18 66 C18 74.91 18 83.82 18 93 C12.06 93 6.12 93 0 93 C0 62.31 0 31.62 0 0 Z " fill="#050505" transform="translate(2302,850)"/>
<path d="M0 0 C57.73901844 0 57.73901844 0 69.234375 10.11328125 C76.50320672 17.88063904 78.48923441 26.21364712 78.3203125 36.7109375 C77.8393171 41.64993908 76.28387948 45.63118525 74 50 C73.443125 51.0725 72.88625 52.145 72.3125 53.25 C69.12706739 57.03808203 65.33817638 59.63829008 61 62 C60.34 62 59.68 62 59 62 C62.55895193 68.56700958 66.86310614 74.42812055 71.31054688 80.41601562 C74.29922189 84.48709427 76.9270293 88.38930005 79 93 C72.69256413 93.94121323 66.20730106 94.88162433 60 93 C54.00908062 88.47742785 50.48054067 80.5136478 47.62890625 73.74609375 C46.11421153 70.65827396 44.700415 69.12436619 42 67 C39.24001806 66.26361399 39.24001806 66.26361399 36.234375 66.17578125 C35.25307617 66.10657471 34.27177734 66.03736816 33.26074219 65.96606445 C28.17535702 65.84084339 23.0866294 65.94500941 18 66 C18 74.91 18 83.82 18 93 C12.06 93 6.12 93 0 93 C0 62.31 0 31.62 0 0 Z " fill="#050505" transform="translate(1907,850)"/>
<path d="M0 0 C9.30604649 7.22746968 16.10203078 17.87232662 18.25 29.5 C19.29311589 41.09556737 18.47493382 51.48635497 10.90625 60.6875 C3.69740758 68.57642189 -4.67092917 72.77525982 -15.40625 73.73828125 C-29.76525548 74.11303551 -40.22428476 69.22329498 -50.7421875 59.6953125 C-61.18993519 48.87608934 -65.29560093 34.85153322 -65.0625 20.1953125 C-64.43897035 12.82207438 -61.71017216 6.52238057 -56.64453125 1.09765625 C-40.03042872 -12.91299929 -17.39262396 -11.37024724 0 0 Z " fill="#023115" transform="translate(199.75,408.5)"/>
<path d="M0 0 C57.77598152 0 57.77598152 0 69 10 C75.54722295 16.82122567 78.09686948 24.07565465 78.4375 33.4375 C78.27739888 39.67416629 76.93366897 44.51994509 74 50 C73.49146484 50.97066406 73.49146484 50.97066406 72.97265625 51.9609375 C69.62613751 57.41540576 64.55041916 60.08490181 59 63 C58.36191406 63.36480469 57.72382812 63.72960937 57.06640625 64.10546875 C52.15339852 66.23227172 46.90318248 66.11943464 41.6328125 66.09765625 C40.61343094 66.09553383 40.61343094 66.09553383 39.57345581 66.09336853 C37.42392388 66.08781518 35.27449992 66.07527169 33.125 66.0625 C31.65885568 66.05747896 30.19270971 66.05291711 28.7265625 66.04882812 C25.15096759 66.03871615 21.57560326 66.01913224 18 66 C18 74.91 18 83.82 18 93 C12.06 93 6.12 93 0 93 C0 62.31 0 31.62 0 0 Z " fill="#050505" transform="translate(1805,850)"/>
<path d="M0 0 C4.95 0 9.9 0 15 0 C18.23151778 3.27312531 19.42938699 4.99500049 21.25 9 C22.29143857 11.00215594 23.33730434 13.00201298 24.38671875 15 C24.94665527 16.10601563 25.5065918 17.21203125 26.08349609 18.3515625 C29.35107952 24.68542655 33.1088515 30.75062932 36.7779541 36.85693359 C38.04407295 38.96925732 39.30054747 41.08700012 40.55371094 43.20703125 C40.95063644 43.87750488 41.34756195 44.54797852 41.7565155 45.23876953 C42.49911719 46.49317264 43.24096831 47.74802054 43.98188782 49.00341797 C46.21000723 52.75336172 48.5541759 56.3906551 51 60 C56.50287462 51.56347368 61.62041271 42.92714056 66.69726562 34.23046875 C67.97802701 32.03762093 69.26164781 29.84648308 70.546875 27.65625 C70.96251709 26.94670166 71.37815918 26.23715332 71.80639648 25.50610352 C72.64037555 24.09117577 73.48099721 22.68014127 74.32836914 21.27319336 C76.4273174 17.77467375 78.37956489 14.28121983 80.13671875 10.59765625 C82.11778235 6.60617315 83.92982439 3.2702022 87 0 C91.89532127 -1.29736519 96.07488843 -1.0824421 101 0 C102.85581966 1.85581966 102.12004366 4.49398306 102.12442017 6.96286011 C102.11902725 8.24786911 102.11902725 8.24786911 102.11352539 9.55883789 C102.11367142 10.45631241 102.11381744 11.35378693 102.1139679 12.27845764 C102.11326842 15.25988134 102.10547441 18.2412434 102.09765625 21.22265625 C102.09579219 23.28388942 102.09436823 25.34512304 102.09336853 27.40635681 C102.08954237 32.8430401 102.07971126 38.27969686 102.06866455 43.71636963 C102.05845253 49.25947714 102.05387136 54.80258892 102.04882812 60.34570312 C102.03808908 71.23048231 102.02049149 82.1152348 102 93 C96.39 93 90.78 93 85 93 C84.505 64.29 84.505 64.29 84 35 C76.93216368 46.77065939 76.93216368 46.77065939 69.94213867 58.58544922 C68.30879871 61.36255973 66.66079436 64.13064708 65.01171875 66.8984375 C63.25160607 69.85672858 61.53191426 72.82376224 59.89453125 75.8515625 C59.33121094 76.84929687 58.76789063 77.84703125 58.1875 78.875 C57.74792969 79.69742188 57.30835938 80.51984375 56.85546875 81.3671875 C54.4412312 83.49171654 52.31093765 83.97984004 49.11157227 83.79394531 C44.33234477 81.99696903 42.25095275 76.66345121 39.875 72.4375 C38.70575139 70.45701813 37.53647931 68.47655012 36.3671875 66.49609375 C34.92601562 64.02238281 33.48484375 61.54867187 32 59 C27.38 51.41 22.76 43.82 18 36 C17.67 54.81 17.34 73.62 17 93 C11.39 93 5.78 93 0 93 C0 62.31 0 31.62 0 0 Z " fill="#050505" transform="translate(1672,850)"/>
<path d="M0 0 C1.58206057 0.00667536 3.16410534 0.0186375 4.74609375 0.03515625 C5.55240234 0.03966797 6.35871094 0.04417969 7.18945312 0.04882812 C9.18753131 0.06065107 11.18557158 0.07858711 13.18359375 0.09765625 C19.31108932 12.69306381 25.03667934 25.45363247 30.69580078 38.26394653 C36.97401775 52.46841243 43.42340524 66.5897652 49.95117188 80.68115234 C50.30236084 81.44086838 50.6535498 82.20058441 51.01538086 82.98332214 C51.67528277 84.41047942 52.33682633 85.8368791 53.00024414 87.2624054 C55.18359375 91.98551014 55.18359375 91.98551014 55.18359375 93.09765625 C48.91359375 93.09765625 42.64359375 93.09765625 36.18359375 93.09765625 C34.84344718 90.16309424 33.51127848 87.22534997 32.18359375 84.28515625 C31.80203125 83.45177734 31.42046875 82.61839844 31.02734375 81.75976562 C30.66640625 80.95732422 30.30546875 80.15488281 29.93359375 79.328125 C29.43085938 78.22053833 29.43085938 78.22053833 28.91796875 77.09057617 C28.18359375 75.09765625 28.18359375 75.09765625 28.18359375 72.09765625 C12.67359375 72.42765625 -2.83640625 72.75765625 -18.81640625 73.09765625 C-21.45640625 79.36765625 -24.09640625 85.63765625 -26.81640625 92.09765625 C-27.81640625 93.09765625 -27.81640625 93.09765625 -29.58227539 93.21118164 C-30.33114014 93.20594482 -31.08000488 93.20070801 -31.8515625 93.1953125 C-32.66044922 93.19208984 -33.46933594 93.18886719 -34.30273438 93.18554688 C-35.15287109 93.17716797 -36.00300781 93.16878906 -36.87890625 93.16015625 C-37.73291016 93.15564453 -38.58691406 93.15113281 -39.46679688 93.14648438 C-41.58336288 93.13465998 -43.6998931 93.11672394 -45.81640625 93.09765625 C-40.22076041 79.71473661 -34.29543721 66.49849507 -28.23580933 53.32119751 C-21.96040848 39.67119842 -15.83499624 25.95829649 -9.78100586 12.20874023 C-9.29136856 11.10007347 -9.29136856 11.10007347 -8.7918396 9.9690094 C-8.17941414 8.58223177 -7.56890306 7.19460664 -6.96060181 5.80601501 C-4.444343 0.11372423 -4.444343 0.11372423 0 0 Z " fill="#040404" transform="translate(2486.81640625,849.90234375)"/>
<path d="M0 0 C1.58206057 0.00667536 3.16410534 0.0186375 4.74609375 0.03515625 C5.55240234 0.03966797 6.35871094 0.04417969 7.18945312 0.04882812 C9.18753131 0.06065107 11.18557158 0.07858711 13.18359375 0.09765625 C19.31108932 12.69306381 25.03667934 25.45363247 30.69580078 38.26394653 C36.97401775 52.46841243 43.42340524 66.5897652 49.95117188 80.68115234 C50.30236084 81.44086838 50.6535498 82.20058441 51.01538086 82.98332214 C51.67528277 84.41047942 52.33682633 85.8368791 53.00024414 87.2624054 C55.18359375 91.98551014 55.18359375 91.98551014 55.18359375 93.09765625 C48.91359375 93.09765625 42.64359375 93.09765625 36.18359375 93.09765625 C34.84344718 90.16309424 33.51127848 87.22534997 32.18359375 84.28515625 C31.80203125 83.45177734 31.42046875 82.61839844 31.02734375 81.75976562 C30.66640625 80.95732422 30.30546875 80.15488281 29.93359375 79.328125 C29.43085938 78.22053833 29.43085938 78.22053833 28.91796875 77.09057617 C28.18359375 75.09765625 28.18359375 75.09765625 28.18359375 72.09765625 C12.67359375 72.42765625 -2.83640625 72.75765625 -18.81640625 73.09765625 C-21.45640625 79.36765625 -24.09640625 85.63765625 -26.81640625 92.09765625 C-27.81640625 93.09765625 -27.81640625 93.09765625 -29.58227539 93.21118164 C-30.33114014 93.20594482 -31.08000488 93.20070801 -31.8515625 93.1953125 C-32.66044922 93.19208984 -33.46933594 93.18886719 -34.30273438 93.18554688 C-35.15287109 93.17716797 -36.00300781 93.16878906 -36.87890625 93.16015625 C-37.73291016 93.15564453 -38.58691406 93.15113281 -39.46679688 93.14648438 C-41.58336288 93.13465998 -43.6998931 93.11672394 -45.81640625 93.09765625 C-40.22076041 79.71473661 -34.29543721 66.49849507 -28.23580933 53.32119751 C-21.96040848 39.67119842 -15.83499624 25.95829649 -9.78100586 12.20874023 C-9.29136856 11.10007347 -9.29136856 11.10007347 -8.7918396 9.9690094 C-8.17941414 8.58223177 -7.56890306 7.19460664 -6.96060181 5.80601501 C-4.444343 0.11372423 -4.444343 0.11372423 0 0 Z " fill="#040404" transform="translate(2228.81640625,849.90234375)"/>
<path d="M0 0 C1.58206057 0.00667536 3.16410534 0.0186375 4.74609375 0.03515625 C5.55240234 0.03966797 6.35871094 0.04417969 7.18945312 0.04882812 C9.18753131 0.06065107 11.18557158 0.07858711 13.18359375 0.09765625 C19.31108932 12.69306381 25.03667934 25.45363247 30.69580078 38.26394653 C36.97401775 52.46841243 43.42340524 66.5897652 49.95117188 80.68115234 C50.30236084 81.44086838 50.6535498 82.20058441 51.01538086 82.98332214 C51.67528277 84.41047942 52.33682633 85.8368791 53.00024414 87.2624054 C55.18359375 91.98551014 55.18359375 91.98551014 55.18359375 93.09765625 C48.91359375 93.09765625 42.64359375 93.09765625 36.18359375 93.09765625 C34.84344718 90.16309424 33.51127848 87.22534997 32.18359375 84.28515625 C31.80203125 83.45177734 31.42046875 82.61839844 31.02734375 81.75976562 C30.66640625 80.95732422 30.30546875 80.15488281 29.93359375 79.328125 C29.43085937 78.22053833 29.43085937 78.22053833 28.91796875 77.09057617 C28.18359375 75.09765625 28.18359375 75.09765625 28.18359375 72.09765625 C12.67359375 72.42765625 -2.83640625 72.75765625 -18.81640625 73.09765625 C-21.45640625 79.36765625 -24.09640625 85.63765625 -26.81640625 92.09765625 C-27.81640625 93.09765625 -27.81640625 93.09765625 -29.58227539 93.21118164 C-30.33114014 93.20594482 -31.08000488 93.20070801 -31.8515625 93.1953125 C-32.66044922 93.19208984 -33.46933594 93.18886719 -34.30273438 93.18554688 C-35.15287109 93.17716797 -36.00300781 93.16878906 -36.87890625 93.16015625 C-37.73291016 93.15564453 -38.58691406 93.15113281 -39.46679688 93.14648438 C-41.58336288 93.13465998 -43.6998931 93.11672394 -45.81640625 93.09765625 C-40.22076041 79.71473661 -34.29543721 66.49849507 -28.23580933 53.32119751 C-21.96040848 39.67119842 -15.83499624 25.95829649 -9.78100586 12.20874023 C-9.29136856 11.10007347 -9.29136856 11.10007347 -8.7918396 9.9690094 C-8.17941414 8.58223177 -7.56890306 7.19460664 -6.96060181 5.80601501 C-4.444343 0.11372423 -4.444343 0.11372423 0 0 Z " fill="#040404" transform="translate(1342.81640625,849.90234375)"/>
<path d="M0 0 C47.69642857 0 47.69642857 0 59.03515625 9.75 C65.43228738 16.48668162 68.18434711 23.62942498 68.5 32.875 C68.16718502 43.08132608 65.34679146 52.65320854 58 60 C46.20270529 70.26890025 31.96908537 70.55565335 17.1875 70.25 C11.515625 70.1675 5.84375 70.085 0 70 C0 46.9 0 23.8 0 0 Z " fill="#FDFDFD" transform="translate(1747,491)"/>
<path d="M0 0 C47.69642857 0 47.69642857 0 59.03515625 9.75 C65.43228738 16.48668162 68.18434711 23.62942498 68.5 32.875 C68.16718502 43.08132608 65.34679146 52.65320854 58 60 C46.20270529 70.26890025 31.96908537 70.55565335 17.1875 70.25 C11.515625 70.1675 5.84375 70.085 0 70 C0 46.9 0 23.8 0 0 Z " fill="#FDFDFD" transform="translate(1004,491)"/>
<path d="M0 0 C22.44 0 44.88 0 68 0 C68 4.95 68 9.9 68 15 C51.5 15 35 15 18 15 C18 22.92 18 30.84 18 39 C32.52 39 47.04 39 62 39 C62 43.62 62 48.24 62 53 C47.48 53 32.96 53 18 53 C18 61.25 18 69.5 18 78 C35.16 78 52.32 78 70 78 C70 82.95 70 87.9 70 93 C46.9 93 23.8 93 0 93 C0 62.31 0 31.62 0 0 Z " fill="#050505" transform="translate(2010,850)"/>
<path d="M0 0 C22.44 0 44.88 0 68 0 C68 4.95 68 9.9 68 15 C51.5 15 35 15 18 15 C18 22.92 18 30.84 18 39 C32.52 39 47.04 39 62 39 C62 43.62 62 48.24 62 53 C47.48 53 32.96 53 18 53 C18 61.25 18 69.5 18 78 C35.16 78 52.32 78 70 78 C70 82.95 70 87.9 70 93 C46.9 93 23.8 93 0 93 C0 62.31 0 31.62 0 0 Z " fill="#050505" transform="translate(1576,850)"/>
<path d="M0 0 C22.44 0 44.88 0 68 0 C68 4.95 68 9.9 68 15 C51.5 15 35 15 18 15 C18 22.92 18 30.84 18 39 C32.52 39 47.04 39 62 39 C62 43.62 62 48.24 62 53 C47.48 53 32.96 53 18 53 C18 61.25 18 69.5 18 78 C35.16 78 52.32 78 70 78 C70 82.95 70 87.9 70 93 C46.9 93 23.8 93 0 93 C0 62.31 0 31.62 0 0 Z " fill="#050505" transform="translate(1044,850)"/>
<path d="M0 0 C2.30577709 2.22103866 4.08652368 4.41422119 6 7 C2.7 10.3 -0.6 13.6 -4 17 C-7.48013869 15.25993065 -10.57723378 13.36167474 -13.8046875 11.21875 C-22.24373076 6.53372954 -33.60313786 6.55833201 -42.89453125 8.65234375 C-51.8580241 12.30995116 -58.2136585 19.20853756 -62 28 C-64.6345555 36.15698914 -63.68963458 45.19397984 -60.125 52.85546875 C-55.99218731 60.73364294 -50.06601894 66.68719807 -41.44921875 69.53125 C-31.02648058 71.52603243 -22.27036857 69.56759214 -12 67 C-12 57.43 -12 47.86 -12 38 C-6.39 38 -0.78 38 5 38 C5.23035701 43.16511618 5.42892645 48.31234163 5.54931641 53.47851562 C5.59948251 55.23271109 5.6676401 56.98649084 5.75439453 58.73925781 C6.45895035 73.34428548 6.45895035 73.34428548 2.83496094 77.45703125 C0.25269482 79.00770505 -2.14990541 80.0495911 -5 81 C-5.99 81.5775 -6.98 82.155 -8 82.75 C-20.72614733 88.05256139 -39.65976908 88.5555163 -52.3984375 83.32421875 C-66.93460535 75.92517836 -73.88490725 67.20290045 -80.14453125 52.26953125 C-83.42332064 39.73826769 -81.94999669 25.51502022 -75.4921875 14.40625 C-67.53712496 2.12215342 -56.55991603 -5.29661272 -42.3359375 -8.49609375 C-27.38426602 -10.7546015 -12.60117901 -8.80662108 0 0 Z " fill="#050505" transform="translate(1010,858)"/>
<path d="M0 0 C-0.63156995 5.05255964 -2.13459373 9.29593201 -4 14 C-6.90191474 13.05815048 -9.75946872 12.09985692 -12.578125 10.9296875 C-21.74098262 7.31277002 -33.39967019 5.5861142 -42.89453125 9.05859375 C-45.55423005 10.67358203 -47.58860686 12.17721373 -49 15 C-49.21377721 20.60703213 -49.21377721 20.60703213 -48 26 C-45.88214887 27.11785113 -45.88214887 27.11785113 -43 28 C-42.41605469 28.21398437 -41.83210938 28.42796875 -41.23046875 28.6484375 C-36.2519761 30.41899129 -31.19617894 31.70589488 -26.0625 32.9375 C-14.48870744 35.74937163 -4.35677904 39.12089671 3 49 C5.16880227 55.50640682 5.35008175 65.13439891 2.5 71.5 C-1.9959437 78.75661089 -9.02195932 83.3358787 -17 86 C-30.23378853 89.0446821 -46.57614655 88.67056236 -59 83 C-60.35544922 82.38705078 -60.35544922 82.38705078 -61.73828125 81.76171875 C-67.59566145 78.81936447 -67.59566145 78.81936447 -68.88671875 76.203125 C-69.04824195 73.06177732 -67.93267228 71.05718223 -66.5625 68.25 C-66.08941406 67.26515625 -65.61632813 66.2803125 -65.12890625 65.265625 C-64.75636719 64.51796875 -64.38382813 63.7703125 -64 63 C-60.61066915 64.2980416 -57.44688552 65.78663652 -54.25 67.5 C-44.30397139 72.46569028 -32.73758245 74.00603804 -21.9375 70.75 C-18.51900773 69.38637349 -15.9969118 68.21242334 -14 65 C-13.46836011 61.13779253 -13.76120812 57.71637565 -15 54 C-18.63634248 52.18306198 -22.51955402 51.2709539 -26.4453125 50.265625 C-27.68796875 49.93820312 -28.930625 49.61078125 -30.2109375 49.2734375 C-32.79419642 48.59499281 -35.37999827 47.93114881 -37.96875 47.2734375 C-48.32508866 44.51886495 -58.85323727 41.31928542 -65 32 C-68.30495061 25.26026143 -68.30104937 16.42104156 -66.1953125 9.265625 C-62.20534724 1.28569448 -55.29920966 -3.4668834 -47.0625 -6.4375 C-30.8317632 -10.84678681 -14.52660273 -8.13104091 0 0 Z " fill="#040404" transform="translate(2168,857)"/>
<path d="M0 0 C-0.63156995 5.05255964 -2.13459373 9.29593201 -4 14 C-6.90191474 13.05815048 -9.75946872 12.09985692 -12.578125 10.9296875 C-21.74098262 7.31277002 -33.39967019 5.5861142 -42.89453125 9.05859375 C-45.55423005 10.67358203 -47.58860686 12.17721373 -49 15 C-49.21377721 20.60703213 -49.21377721 20.60703213 -48 26 C-45.88214887 27.11785113 -45.88214887 27.11785113 -43 28 C-42.41605469 28.21398437 -41.83210938 28.42796875 -41.23046875 28.6484375 C-36.2519761 30.41899129 -31.19617894 31.70589488 -26.0625 32.9375 C-14.48870744 35.74937163 -4.35677904 39.12089671 3 49 C5.16880227 55.50640682 5.35008175 65.13439891 2.5 71.5 C-1.9959437 78.75661089 -9.02195932 83.3358787 -17 86 C-30.23378853 89.0446821 -46.57614655 88.67056236 -59 83 C-60.35544922 82.38705078 -60.35544922 82.38705078 -61.73828125 81.76171875 C-67.59566145 78.81936447 -67.59566145 78.81936447 -68.88671875 76.203125 C-69.04824195 73.06177732 -67.93267228 71.05718223 -66.5625 68.25 C-66.08941406 67.26515625 -65.61632813 66.2803125 -65.12890625 65.265625 C-64.75636719 64.51796875 -64.38382813 63.7703125 -64 63 C-60.61066915 64.2980416 -57.44688552 65.78663652 -54.25 67.5 C-44.30397139 72.46569028 -32.73758245 74.00603804 -21.9375 70.75 C-18.51900773 69.38637349 -15.9969118 68.21242334 -14 65 C-13.46836011 61.13779253 -13.76120812 57.71637565 -15 54 C-18.63634248 52.18306198 -22.51955402 51.2709539 -26.4453125 50.265625 C-27.68796875 49.93820312 -28.930625 49.61078125 -30.2109375 49.2734375 C-32.79419642 48.59499281 -35.37999827 47.93114881 -37.96875 47.2734375 C-48.32508866 44.51886495 -58.85323727 41.31928542 -65 32 C-68.30495061 25.26026143 -68.30104937 16.42104156 -66.1953125 9.265625 C-62.20534724 1.28569448 -55.29920966 -3.4668834 -47.0625 -6.4375 C-30.8317632 -10.84678681 -14.52660273 -8.13104091 0 0 Z " fill="#040404" transform="translate(1201,857)"/>
<path d="M0 0 C0.58007812 0.37253906 1.16015625 0.74507812 1.7578125 1.12890625 C6.30942402 4.41109847 8.65863402 9.04580532 11 14 C11.36867188 14.76957031 11.73734375 15.53914062 12.1171875 16.33203125 C14.71695128 24.18883947 13.91794753 34.29392844 10.3828125 41.72265625 C5.17608595 50.29757597 -1.34085797 55.55659273 -10.91015625 58.609375 C-21.04285517 60.50333741 -30.67067302 59.16001455 -39.1875 53.375 C-45.40380023 48.37224045 -50.37410644 40.87416221 -52 33 C-53.01925862 23.21008386 -51.94217282 15.25876721 -45.9765625 7.30078125 C-34.57928271 -6.02197755 -15.07201608 -10.58559884 0 0 Z " fill="#FDFDFD" transform="translate(1478,870)"/>
<path d="M0 0 C2 1 2 1 2.97045898 3.39135742 C3.30891846 4.45201416 3.64737793 5.5126709 3.99609375 6.60546875 C4.384021 7.80107422 4.77194824 8.99667969 5.17163086 10.22851562 C5.37722626 10.87216064 5.58282166 11.51580566 5.79464722 12.17895508 C6.89572226 15.61918082 8.02505486 19.05004843 9.15625 22.48046875 C9.50700844 23.544897 9.50700844 23.544897 9.86485291 24.63082886 C12.2438437 31.80805755 14.81540397 38.90782317 17.4375 46 C17.88641602 47.21486084 18.33533203 48.42972168 18.79785156 49.68139648 C19.95303778 52.79986559 21.11080099 55.91736119 22.26977539 59.03442383 C24.33595226 64.59603867 26.39160678 70.16152549 28.44192505 75.72900391 C29.17455588 77.71491297 29.91123412 79.69928763 30.64819336 81.68359375 C31.30766968 83.47216797 31.30766968 83.47216797 31.98046875 85.296875 C32.37129639 86.35229492 32.76212402 87.40771484 33.16479492 88.49511719 C34 91 34 91 34 93 C12.22 93 -9.56 93 -32 93 C-30.87492563 86.24955379 -30.87492563 86.24955379 -29.71240234 83.11621094 C-29.32597061 82.06285553 -29.32597061 82.06285553 -28.93173218 80.98822021 C-28.65261993 80.24445129 -28.37350769 79.50068237 -28.0859375 78.734375 C-27.79320953 77.9421051 -27.50048157 77.14983521 -27.19888306 76.33355713 C-26.26256701 73.80382633 -25.31874321 71.27696799 -24.375 68.75 C-23.76386591 67.09912744 -23.15318507 65.44808702 -22.54296875 63.796875 C-19.53824547 55.68778639 -16.46870857 47.60838867 -13.30859375 39.55859375 C-10.55863784 32.54131597 -8.02520909 25.47923443 -5.6875 18.3125 C-5.35427734 17.30767578 -5.02105469 16.30285156 -4.67773438 15.26757812 C-3.00810132 10.20535735 -1.41593219 5.13904324 0 0 Z " fill="#FBFBFB" transform="translate(2442,498)"/>
<path d="M0 0 C7.10369095 5.69479225 10.86810456 12.88946992 13.71875 21.44140625 C14.61978762 29.89828792 13.64808825 36.41741281 8.71875 43.44140625 C3.48861126 49.74474228 -3.99299138 52.69032024 -11.9765625 53.82421875 C-23.6370397 54.33415216 -34.60160335 50.14945066 -43.28125 42.44140625 C-48.10406731 37.20910445 -50.57032373 31.81818543 -50.28125 24.69140625 C-49.07053935 15.52852796 -43.57001295 8.96847365 -36.65625 3.19921875 C-25.49118488 -5.06439853 -12.16891979 -8.31403938 0 0 Z " fill="#033216" transform="translate(135.28125,502.55859375)"/>
<path d="M0 0 C25.74 0 51.48 0 78 0 C78 4.62 78 9.24 78 14 C68.1 14 58.2 14 48 14 C48 39.74 48 65.48 48 92 C42.06 92 36.12 92 30 92 C30 66.26 30 40.52 30 14 C20.1 14 10.2 14 0 14 C0 9.38 0 4.76 0 0 Z " fill="#030303" transform="translate(1217,851)"/>
<path d="M0 0 C5.94 0 11.88 0 18 0 C18 25.74 18 51.48 18 78 C33.84 78 49.68 78 66 78 C66 82.95 66 87.9 66 93 C44.22 93 22.44 93 0 93 C0 62.31 0 31.62 0 0 Z " fill="#060606" transform="translate(2560,850)"/>
<path d="M0 0 C5.94 0 11.88 0 18 0 C18 30.69 18 61.38 18 93 C12.06 93 6.12 93 0 93 C0 62.31 0 31.62 0 0 Z " fill="#080808" transform="translate(2405,850)"/>
<path d="M0 0 C4.24875 -0.103125 8.4975 -0.20625 12.875 -0.3125 C14.85282471 -0.38078003 14.85282471 -0.38078003 16.87060547 -0.45043945 C24.68100779 -0.54147663 30.50487486 0.4989134 37 5 C42.02402525 10.26909965 42.29117622 13.92518684 42.21484375 21.015625 C41.85751374 25.97926368 40.27575271 28.72424729 36.8125 32.1875 C28.83042622 37.3315031 21.7616634 37.38442072 12.5 37.1875 C8.375 37.125625 4.25 37.06375 0 37 C0 24.79 0 12.58 0 0 Z " fill="#FBFBFB" transform="translate(2320,865)"/>
<path d="M0 0 C4.24875 -0.103125 8.4975 -0.20625 12.875 -0.3125 C14.85282471 -0.38078003 14.85282471 -0.38078003 16.87060547 -0.45043945 C24.68100779 -0.54147663 30.50487486 0.4989134 37 5 C42.02402525 10.26909965 42.29117622 13.92518684 42.21484375 21.015625 C41.85751374 25.97926368 40.27575271 28.72424729 36.8125 32.1875 C28.83042622 37.3315031 21.7616634 37.38442072 12.5 37.1875 C8.375 37.125625 4.25 37.06375 0 37 C0 24.79 0 12.58 0 0 Z " fill="#FBFBFB" transform="translate(1925,865)"/>
<path d="M0 0 C4.24875 -0.103125 8.4975 -0.20625 12.875 -0.3125 C14.85282471 -0.38078003 14.85282471 -0.38078003 16.87060547 -0.45043945 C24.68100779 -0.54147663 30.50487486 0.4989134 37 5 C42.02402525 10.26909965 42.29117622 13.92518684 42.21484375 21.015625 C41.85926113 25.95499091 40.26779725 28.6949146 36.875 32.1875 C28.93274173 37.19457587 21.12310202 37.39259248 11.9375 37.1875 C7.998125 37.125625 4.05875 37.06375 0 37 C0 24.79 0 12.58 0 0 Z " fill="#FBFBFB" transform="translate(1823,865)"/>
<path d="M0 0 C2.9411857 3.48490158 4.61266916 7.37362027 6.35546875 11.5390625 C6.66196854 12.26112885 6.96846832 12.98319519 7.28425598 13.72714233 C7.9280757 15.24731362 8.56919383 16.7686316 9.20776367 18.29101562 C10.1882117 20.62669546 11.1783909 22.95806912 12.16992188 25.2890625 C12.79484996 26.76798459 13.41921858 28.24714323 14.04296875 29.7265625 C14.3397905 30.42552643 14.63661224 31.12449036 14.94242859 31.84463501 C17 36.76885468 17 36.76885468 17 39 C5.78 39 -5.44 39 -17 39 C-13.00337245 28.86569443 -8.9848609 18.76890902 -4.5625 8.8125 C-4.22089844 8.04115723 -3.87929687 7.26981445 -3.52734375 6.47509766 C-1.13115222 1.13115222 -1.13115222 1.13115222 0 0 Z " fill="#FAFAFA" transform="translate(2491,869)"/>
<path d="M0 0 C2.9411857 3.48490158 4.61266916 7.37362027 6.35546875 11.5390625 C6.66196854 12.26112885 6.96846832 12.98319519 7.28425598 13.72714233 C7.9280757 15.24731362 8.56919383 16.7686316 9.20776367 18.29101562 C10.1882117 20.62669546 11.1783909 22.95806912 12.16992188 25.2890625 C12.79484996 26.76798459 13.41921858 28.24714323 14.04296875 29.7265625 C14.3397905 30.42552643 14.63661224 31.12449036 14.94242859 31.84463501 C17 36.76885468 17 36.76885468 17 39 C5.78 39 -5.44 39 -17 39 C-13.00337245 28.86569443 -8.9848609 18.76890902 -4.5625 8.8125 C-4.22089844 8.04115723 -3.87929687 7.26981445 -3.52734375 6.47509766 C-1.13115222 1.13115222 -1.13115222 1.13115222 0 0 Z " fill="#FAFAFA" transform="translate(2233,869)"/>
<path d="M0 0 C2.9411857 3.48490158 4.61266916 7.37362027 6.35546875 11.5390625 C6.66196854 12.26112885 6.96846832 12.98319519 7.28425598 13.72714233 C7.9280757 15.24731362 8.56919383 16.7686316 9.20776367 18.29101562 C10.1882117 20.62669546 11.1783909 22.95806912 12.16992188 25.2890625 C12.79484996 26.76798459 13.41921858 28.24714323 14.04296875 29.7265625 C14.3397905 30.42552643 14.63661224 31.12449036 14.94242859 31.84463501 C17 36.76885468 17 36.76885468 17 39 C5.78 39 -5.44 39 -17 39 C-13.00337245 28.86569443 -8.9848609 18.76890902 -4.5625 8.8125 C-4.22089844 8.04115723 -3.87929687 7.26981445 -3.52734375 6.47509766 C-1.13115222 1.13115222 -1.13115222 1.13115222 0 0 Z " fill="#FAFAFA" transform="translate(1347,869)"/>
<path d="M0 0 C3.2974222 1.66137401 6.10912846 3.71804415 9 6 C12.4352048 8.29013653 13.985331 8.17842973 18 8 C18.99 5.69 19.98 3.38 21 1 C24.3 1 27.6 1 31 1 C30.62440509 7.19731602 30.18385602 11.13768085 26 16 C22.29722159 19.19785408 19.22260485 20.76272687 14.2265625 20.53125 C8.88371239 19.25646471 3.85303295 15.85303295 0 12 C-3.58343976 11.83322718 -3.58343976 11.83322718 -7 12 C-7.99 14.31 -8.98 16.62 -10 19 C-13.3 19 -16.6 19 -20 19 C-19.53545842 11.33506393 -18.07227821 7.43372271 -12.875 1.625 C-8.56599178 -0.81052638 -4.82803494 -0.97275963 0 0 Z " fill="#070707" transform="translate(1342,824)"/>
</svg>
