<?xml version="1.0" encoding="UTF-8"?>
<svg id="Camada_1" xmlns="http://www.w3.org/2000/svg" version="1.1" viewBox="38 26 424 208">
  <!-- Generator: Adobe Illustrator 29.5.1, SVG Export Plug-In . SVG Version: 2.1.0 Build 141)  -->
  <defs>
    <style>
      .st0 {
        fill: #022a68;
      }

      .st1 {
        font-family: Lato-Bold, Lato;
        font-weight: 700;
      }

      .st2 {
        letter-spacing: 0em;
      }

      .st2, .st3 {
        font-size: 50px;
      }

      .st4 {
        letter-spacing: 0em;
      }

      .st4, .st5 {
        fill: #013014;
      }

      .st4, .st6 {
        font-size: 60px;
      }

      .st3 {
        letter-spacing: -.01em;
      }

      .st8 {
        font-size: 47px;
        letter-spacing: 0em;
      }

      .st6 {
        fill: #01256a;
        letter-spacing: 0em;
      }
    </style>
  </defs>
  <g>
    <path class="st5" d="M129.19,125.43c-1.59,1.96-9.52-.49-10.1-1.91l.75-8.76c-.38-7.07.28-14.27,0-21.35l-34.03,2.85-.65,5.16,14.27,2.67-.15,1.91c-13.02,13.34-31.26,23.38-37.23,41.97l-1.75.06c-6.27-22.57-14.27-44.66,6.81-62.42,37.17-31.31,101.8-5.03,62.06,39.83Z"/>
    <path class="st0" d="M78.19,192.76c-3.47-6.54-6.24-13.33-8.3-20.37-.98-5.05.12-19.82,6.99-19.04-1.67-7.47,3-7.61,9.26-6.45l10.77,2.43c8.69-2.65,13.25-.77,13.69,5.65h.75c2.87,7.27,9.07,13.91,10.1,21.86,3.56,27.39-27.4,35.34-43.25,15.91Z"/>
    <path class="st0" d="M78.19,192.76c-26.13-32.01,5.64-59.52,29.4-79.6,3.03-.23,3.81,8.82,5.68,10.41,1.51,1.29,4.57.8,4.88,1.04,3.22-1.66,6.97,4.17,4.25,6.57-6.3,7.06-12.55,13.62-11.05,23.81l-.84,2.46c-3.12-12.44-7.2-5.79-14.05-6.51-6.02-.63-11.53-3.95-18.27-2.51l.85,10.66c-3.1.47-.93-6.36-5.14-3.73-.56.35-3.41,11.58-3.42,12.34-.12,7.61,7.23,17.36,7.72,25.06Z"/>
    <path class="st0" d="M132.37,32.04c19.33-2.75,17.84,26.19,4.22,32.8-23.2,11.25-25.64-29.75-4.22-32.8Z"/>
    <path class="st5" d="M98.39,38.58c14.1-2.1,16,21.78,5.55,24.27-16.19,3.85-18.26-22.38-5.55-24.27Z"/>
    <path class="st5" d="M83.89,67.71c-8.57,8.23-23.05-10.01-12.94-17,9.08-6.28,19.28,10.91,12.94,17Z"/>
    <path class="st5" d="M56.7,64.85c10.48-2.74,14.63,12.51,5.33,14.25-8.69,1.63-13.53-12.11-5.33-14.25Z"/>
    <path class="st5" d="M53.31,91.54c-4.68,3.52-13.69-2.22-7.46-7.61,6.61-5.71,11.86,4.31,7.46,7.61Z"/>
    <path class="st5" d="M119.84,114.76c.14,2.68-.27,5.41.13,8.08l9.22,2.59c-2.21,2.49-5.81,4.63-6.8,5.75-.57-3.02-1.76-4.7-4.25-6.57l1.7-9.85Z"/>
  </g>
  <text class="st1" transform="translate(156.08 111.33)"><tspan class="st4" x="0" y="0">P</tspan><tspan class="st3" x="37.44" y="0">RIMEIRO</tspan><tspan class="st8" x="244.54" y="0"> </tspan><tspan class="st6" x="0" y="53">P</tspan><tspan class="st2" x="37.02" y="53">ASSO</tspan></text>
  <text/>
  <text/>
  <g>
    <path d="M164.08,196.25c-1.04,0-1.99-.17-2.86-.5-.87-.34-1.62-.81-2.27-1.43-.65-.62-1.15-1.34-1.5-2.17-.35-.82-.53-1.74-.53-2.74s.18-1.91.53-2.74c.35-.82.86-1.55,1.51-2.17.65-.62,1.41-1.1,2.28-1.43.87-.34,1.83-.5,2.9-.5s2.12.18,3.03.55c.91.37,1.67.91,2.29,1.62l-1.56,1.52c-.52-.52-1.08-.9-1.68-1.15-.6-.25-1.26-.37-1.99-.37s-1.36.11-1.95.34c-.59.23-1.1.55-1.53.97s-.77.91-1.01,1.48c-.24.57-.36,1.2-.36,1.88s.12,1.3.36,1.87c.24.58.58,1.07,1.01,1.49s.94.74,1.52.97c.58.23,1.23.34,1.94.34.66,0,1.29-.1,1.91-.31.61-.21,1.2-.56,1.76-1.05l1.39,1.84c-.68.56-1.48.98-2.39,1.26s-1.84.43-2.79.43ZM169.26,194.56l-2.32-.32v-4.96h2.32v5.28Z"/>
    <path d="M173.56,196.06v-13.3h9.71v2.09h-7.24v9.12h7.51v2.09h-9.98ZM175.84,190.32v-2.03h6.61v2.03h-6.61Z"/>
    <path d="M191.44,196.25c-1.04,0-2.03-.15-2.97-.45-.94-.3-1.7-.68-2.27-1.15l.85-1.92c.53.42,1.19.77,1.98,1.04.79.28,1.59.42,2.41.42.7,0,1.26-.08,1.69-.23.43-.15.75-.36.95-.62s.3-.55.3-.88c0-.41-.15-.73-.44-.98-.29-.25-.67-.44-1.13-.59-.46-.15-.98-.28-1.54-.4-.56-.12-1.13-.27-1.69-.45-.56-.18-1.08-.4-1.55-.67s-.85-.64-1.13-1.09c-.29-.46-.43-1.04-.43-1.75s.19-1.38.58-1.99c.39-.6.98-1.08,1.77-1.44.79-.36,1.8-.54,3.01-.54.8,0,1.59.1,2.38.3.79.2,1.47.49,2.05.87l-.78,1.92c-.6-.35-1.21-.62-1.84-.79s-1.24-.26-1.82-.26c-.67,0-1.22.08-1.65.25-.43.17-.74.38-.94.66s-.29.57-.29.9c0,.41.14.73.43.98.28.25.66.44,1.12.58.46.14.98.27,1.55.4s1.13.28,1.69.45c.56.17,1.07.39,1.54.67.47.27.85.63,1.13,1.08.29.45.43,1.02.43,1.72s-.19,1.37-.58,1.97c-.39.6-.98,1.08-1.78,1.44-.8.36-1.81.54-3.02.54Z"/>
    <path d="M202.8,196.06v-11.21h-4.41v-2.09h11.29v2.09h-4.41v11.21h-2.47Z"/>
    <path d="M210.02,196.06l5.99-13.3h2.43l6,13.3h-2.6l-5.13-11.99h.99l-5.15,11.99h-2.53ZM212.77,192.98l.68-1.94h7.16l.67,1.94h-8.51ZM218.74,181.77c-.34,0-.65-.07-.91-.21-.27-.14-.5-.29-.71-.47-.21-.17-.41-.33-.61-.46-.2-.14-.4-.21-.62-.21-.28,0-.5.12-.67.36-.16.24-.25.53-.27.86h-1.37c.01-.77.21-1.42.59-1.93s.9-.77,1.56-.77c.35,0,.67.07.93.2.27.13.5.29.71.47.21.18.41.33.62.47s.41.2.63.2c.27,0,.48-.12.64-.35.16-.23.24-.51.26-.83h1.35c-.01.76-.21,1.4-.58,1.91s-.89.77-1.55.77Z"/>
    <path d="M233.2,196.25c-1.03,0-1.98-.17-2.86-.51-.88-.34-1.64-.82-2.29-1.44-.65-.62-1.15-1.35-1.5-2.18-.35-.83-.53-1.73-.53-2.71s.18-1.9.53-2.73c.35-.83.85-1.55,1.5-2.17.65-.61,1.41-1.09,2.28-1.43.87-.34,1.83-.51,2.87-.51s1.98.17,2.85.5,1.63.81,2.27,1.42c.64.61,1.14,1.34,1.49,2.18s.53,1.75.53,2.74-.18,1.9-.53,2.73c-.35.83-.85,1.56-1.49,2.18-.64.62-1.4,1.1-2.27,1.43-.87.33-1.82.5-2.85.5ZM233.2,194.08c.67,0,1.29-.11,1.85-.34.56-.23,1.05-.55,1.47-.97.42-.42.74-.91.98-1.48.23-.57.35-1.2.35-1.88s-.11-1.31-.34-1.88c-.23-.57-.55-1.06-.98-1.48-.42-.42-.92-.74-1.48-.97-.56-.23-1.18-.34-1.85-.34s-1.3.11-1.87.34c-.58.23-1.07.55-1.49.98-.42.42-.75.92-.99,1.48-.24.56-.36,1.19-.36,1.87s.12,1.29.36,1.86c.24.57.57,1.07.99,1.49.42.42.92.75,1.49.98.58.23,1.2.34,1.87.34Z"/>
    <path d="M250.26,196.06v-13.3h9.71v2.09h-7.24v9.12h7.51v2.09h-9.98ZM252.54,190.32v-2.03h6.61v2.03h-6.61Z"/>
    <path d="M264.02,196.06v-13.3h2.03l5.81,9.71h-1.06l5.72-9.71h2.03l.04,13.3h-2.38v-9.63h.48l-4.83,8.13h-1.12l-4.94-8.13h.57v9.63h-2.36Z"/>
    <path d="M283.19,196.06v-13.3h5.47c1.18,0,2.19.19,3.03.56.84.37,1.49.92,1.95,1.62.46.71.68,1.56.68,2.55s-.23,1.81-.68,2.52-1.1,1.25-1.95,1.63c-.84.39-1.85.58-3.03.58h-4.08l1.08-1.14v4.98h-2.47ZM285.66,191.35l-1.08-1.22h3.97c1.09,0,1.91-.23,2.46-.69.55-.46.83-1.11.83-1.95s-.28-1.48-.83-1.95c-.55-.46-1.37-.69-2.46-.69h-3.97l1.08-1.22v7.71Z"/>
    <path d="M297.82,196.06v-13.3h5.45c1.77,0,3.16.42,4.17,1.26,1.01.84,1.51,2,1.51,3.47,0,.98-.23,1.81-.68,2.51-.46.7-1.1,1.23-1.95,1.61-.84.38-1.85.57-3.03.57h-4.08l1.08-1.1v4.98h-2.47ZM300.29,191.35l-1.08-1.2h3.97c1.09,0,1.91-.23,2.46-.7.55-.47.83-1.12.83-1.96s-.28-1.48-.83-1.95c-.55-.46-1.37-.69-2.46-.69h-3.97l1.08-1.22v7.71ZM306.52,196.06l-3.36-4.83h2.64l3.38,4.83h-2.66Z"/>
    <path d="M312.73,196.06v-13.3h9.71v2.09h-7.24v9.12h7.51v2.09h-9.98ZM315.01,190.32v-2.03h6.61v2.03h-6.61Z"/>
    <path d="M330.61,196.25c-1.04,0-2.03-.15-2.97-.45-.94-.3-1.7-.68-2.27-1.15l.85-1.92c.53.42,1.19.77,1.98,1.04.79.28,1.59.42,2.41.42.7,0,1.26-.08,1.69-.23.43-.15.75-.36.95-.62s.3-.55.3-.88c0-.41-.15-.73-.44-.98-.29-.25-.67-.44-1.13-.59-.46-.15-.98-.28-1.54-.4-.56-.12-1.13-.27-1.69-.45-.56-.18-1.08-.4-1.55-.67s-.85-.64-1.13-1.09c-.29-.46-.43-1.04-.43-1.75s.19-1.38.58-1.99c.39-.6.98-1.08,1.77-1.44.79-.36,1.8-.54,3.01-.54.8,0,1.59.1,2.38.3.79.2,1.47.49,2.05.87l-.78,1.92c-.6-.35-1.21-.62-1.84-.79s-1.24-.26-1.82-.26c-.67,0-1.22.08-1.65.25-.43.17-.74.38-.94.66s-.29.57-.29.9c0,.41.14.73.43.98.28.25.66.44,1.12.58.46.14.98.27,1.55.4s1.13.28,1.69.45c.56.17,1.07.39,1.54.67.47.27.85.63,1.13,1.08.29.45.43,1.02.43,1.72s-.19,1.37-.58,1.97c-.39.6-.98,1.08-1.78,1.44-.8.36-1.81.54-3.02.54Z"/>
    <path d="M337.58,196.06l5.99-13.3h2.43l6,13.3h-2.6l-5.13-11.99h.99l-5.15,11.99h-2.53ZM340.34,192.98l.68-1.94h7.16l.67,1.94h-8.51Z"/>
    <path d="M354.72,196.06v-13.3h5.45c1.77,0,3.16.42,4.17,1.26,1.01.84,1.51,2,1.51,3.47,0,.98-.23,1.81-.68,2.51-.46.7-1.1,1.23-1.95,1.61-.84.38-1.85.57-3.03.57h-4.08l1.08-1.1v4.98h-2.47ZM357.19,191.35l-1.08-1.2h3.97c1.09,0,1.91-.23,2.46-.7.55-.47.83-1.12.83-1.96s-.28-1.48-.83-1.95c-.55-.46-1.37-.69-2.46-.69h-3.97l1.08-1.22v7.71ZM363.42,196.06l-3.36-4.83h2.64l3.38,4.83h-2.66Z"/>
    <path d="M369.64,196.06v-13.3h2.47v13.3h-2.47Z"/>
    <path d="M374.84,196.06l5.99-13.3h2.43l6,13.3h-2.6l-5.13-11.99h.99l-5.15,11.99h-2.53ZM377.6,192.98l.68-1.94h7.16l.67,1.94h-8.51Z"/>
    <path d="M391.98,196.06v-13.3h2.47v11.21h6.95v2.09h-9.42Z"/>
  </g>
  <text/>
</svg>